<svg xmlns="http://www.w3.org/2000/svg" viewBox="0 0 88.4996948 24.0025024"><path fill="none" d="M0 0h88.5v24.003H0z"/><path d="M40.46 1.992l-2.957 13.632h3.576l2.956-13.632zm-5.291 0l-3.72 9.279-1.506-7.89c-.177-.88-.874-1.389-1.649-1.389h-6.085l-.084.396c1.248.268 2.668.699 3.527 1.16.526.282.677.528.85 1.197l2.85 10.88h3.78l5.793-13.633H35.17zM48.725 5.77c.012-.489.484-1.01 1.517-1.142.512-.065 1.925-.118 3.526.61l.627-2.892a9.758 9.758 0 0 0-3.345-.602c-3.535 0-6.021 1.852-6.041 4.505-.023 1.963 1.776 3.057 3.13 3.71 1.393.669 1.86 1.098 1.854 1.694-.01.915-1.113 1.32-2.139 1.335-1.798.028-2.84-.48-3.672-.861l-.65 2.988c.837.378 2.38.707 3.976.723 3.758 0 6.216-1.83 6.227-4.665.015-3.597-5.043-3.796-5.01-5.404zm14.762-3.778h-3.05c-.689 0-1.267.394-1.523 1l-5.366 12.632h3.755l.745-2.036h4.588l.433 2.036h3.306L63.487 1.992zm-4.41 8.802l1.883-5.119 1.082 5.12h-2.965z" fill="#3E3E3E"/></svg>