<svg xmlns="http://www.w3.org/2000/svg" viewBox="0 0 88.4996948 24.0025024"><path fill="none" d="M0 0h88.5v24.003H0z"/><g fill="#3E3E3E"><path d="M34.621 21.724a.884.884 0 0 0-.298-.192 1.018 1.018 0 0 0-.379-.069c-.072 0-.148.006-.226.019s-.155.033-.23.064a.865.865 0 0 0-.214.129.77.77 0 0 0-.176.207.853.853 0 0 0-.328-.307.98.98 0 0 0-.473-.112c-.06 0-.121.006-.185.016a.857.857 0 0 0-.19.055.767.767 0 0 0-.336.277v-.286h-.503v2.342h.508V22.57c0-.1.016-.188.048-.266a.547.547 0 0 1 .32-.313.665.665 0 0 1 .232-.04c.17 0 .303.053.398.159.094.106.141.258.141.455v1.303h.508V22.57c0-.1.016-.188.048-.266a.547.547 0 0 1 .32-.313.665.665 0 0 1 .232-.04c.17 0 .303.053.397.159.095.106.142.258.142.455v1.303h.508v-1.472a.998.998 0 0 0-.069-.376.858.858 0 0 0-.195-.295zm2.679-.199v.283a.932.932 0 0 0-.31-.25.964.964 0 0 0-.443-.095 1.196 1.196 0 0 0-.85.348 1.17 1.17 0 0 0-.254.39c-.062.15-.093.316-.093.495 0 .18.031.344.093.495a1.18 1.18 0 0 0 .635.646c.145.061.301.092.47.092a.976.976 0 0 0 .442-.093.92.92 0 0 0 .31-.25v.281h.522v-2.342h-.523zm-.02 1.47a.688.688 0 0 1-.375.395.733.733 0 0 1-.295.057.734.734 0 0 1-.304-.06.671.671 0 0 1-.368-.4.843.843 0 0 1-.05-.291c0-.103.016-.2.05-.291a.675.675 0 0 1 .369-.4c.088-.04.19-.06.303-.06.108 0 .206.02.295.058a.685.685 0 0 1 .375.395c.034.091.052.19.052.298a.83.83 0 0 1-.052.298zm2.33-.526l-.247-.037a2.121 2.121 0 0 1-.155-.028.512.512 0 0 1-.125-.043.236.236 0 0 1-.084-.069.166.166 0 0 1-.031-.102c0-.083.04-.15.119-.202a.611.611 0 0 1 .333-.077c.075 0 .149.006.221.02a1.825 1.825 0 0 1 .384.113c.053.024.098.046.135.067l.225-.398a1.555 1.555 0 0 0-.438-.182 2.119 2.119 0 0 0-.532-.065c-.153 0-.29.017-.412.052a.952.952 0 0 0-.311.15.655.655 0 0 0-.266.548c0 .19.068.343.206.46s.34.192.606.228l.25.032c.143.02.248.05.315.094.066.043.1.098.1.165 0 .088-.046.158-.138.209-.092.051-.227.077-.407.077a1.353 1.353 0 0 1-.476-.072 1.03 1.03 0 0 1-.314-.168l-.242.384c.086.064.177.115.272.154a1.89 1.89 0 0 0 .755.147c.171 0 .325-.019.46-.056.137-.037.25-.09.343-.158a.655.655 0 0 0 .286-.551c0-.2-.073-.357-.22-.469-.146-.111-.35-.186-.612-.223zm5.735-.276a1.174 1.174 0 0 0-.233-.388 1.023 1.023 0 0 0-.357-.252 1.15 1.15 0 0 0-.459-.09c-.176 0-.337.03-.483.09a1.092 1.092 0 0 0-.621.641 1.388 1.388 0 0 0-.088.502c0 .186.03.355.09.506a1.115 1.115 0 0 0 .64.639c.15.058.315.088.495.088.181 0 .354-.025.518-.074.164-.049.32-.134.466-.257l-.26-.364a1.157 1.157 0 0 1-.692.247.862.862 0 0 1-.245-.034.643.643 0 0 1-.374-.291.75.75 0 0 1-.093-.272h1.77a1.574 1.574 0 0 0 .01-.19c0-.183-.029-.35-.084-.5zm-1.693.302a.856.856 0 0 1 .07-.233.62.62 0 0 1 .128-.184.545.545 0 0 1 .188-.118.69.69 0 0 1 .248-.042.56.56 0 0 1 .408.152.726.726 0 0 1 .2.425h-1.242zm8.398-.97v.283a.93.93 0 0 0-.31-.25.965.965 0 0 0-.441-.095 1.196 1.196 0 0 0-.85.348 1.188 1.188 0 0 0-.255.39c-.062.15-.092.316-.092.495 0 .18.03.344.092.495a1.179 1.179 0 0 0 .635.646c.145.061.301.092.47.092a.977.977 0 0 0 .442-.093.919.919 0 0 0 .31-.25v.281h.522v-2.342h-.522zm-.02 1.47a.687.687 0 0 1-.375.395.732.732 0 0 1-.294.057.735.735 0 0 1-.304-.06.672.672 0 0 1-.368-.4.843.843 0 0 1-.05-.291c0-.103.016-.2.05-.291a.676.676 0 0 1 .369-.4c.088-.04.19-.06.303-.06a.74.74 0 0 1 .295.058.684.684 0 0 1 .375.395c.035.091.052.19.052.298a.83.83 0 0 1-.052.298zm-9.568.405a.716.716 0 0 1-.249.047.433.433 0 0 1-.149-.025.306.306 0 0 1-.12-.077.372.372 0 0 1-.08-.135.595.595 0 0 1-.03-.2v-1.02h.838v-.465h-.839v-.71h-.524v.71h-.478v.464h.478v1.03c0 .311.075.54.226.688.15.148.362.222.633.222.152 0 .288-.023.409-.069.08-.03.154-.064.223-.103l-.179-.428a1.36 1.36 0 0 1-.16.071zm4.715-1.937a.975.975 0 0 0-.398.079c-.118.052-.217.177-.297.29v-.307h-.474v2.342h.48V22.58c0-.1.013-.189.042-.267a.57.57 0 0 1 .117-.198.487.487 0 0 1 .18-.122.62.62 0 0 1 .23-.042 1.044 1.044 0 0 1 .31.05l.154-.49a.975.975 0 0 0-.128-.03 1.317 1.317 0 0 0-.216-.017zm7.26 0a.975.975 0 0 0-.398.079c-.118.052-.217.177-.297.29v-.307h-.474v2.342h.479V22.58c0-.1.014-.189.042-.267a.568.568 0 0 1 .118-.198.487.487 0 0 1 .18-.122.621.621 0 0 1 .23-.042 1.044 1.044 0 0 1 .31.05l.154-.49a.972.972 0 0 0-.128-.03 1.318 1.318 0 0 0-.216-.017zm2.439-.891v1.236a.93.93 0 0 0-.31-.25.965.965 0 0 0-.442-.095 1.196 1.196 0 0 0-.85.348 1.188 1.188 0 0 0-.255.39c-.061.15-.092.316-.092.495 0 .18.03.344.092.495a1.179 1.179 0 0 0 .635.646c.145.061.301.092.47.092a.977.977 0 0 0 .442-.093.919.919 0 0 0 .31-.25v.281h.522v-3.295h-.522zm-.02 2.422a.687.687 0 0 1-.375.395.733.733 0 0 1-.295.058.732.732 0 0 1-.303-.06.676.676 0 0 1-.369-.4.84.84 0 0 1-.05-.291c0-.103.017-.2.05-.291a.678.678 0 0 1 .369-.4c.089-.04.19-.06.303-.06a.74.74 0 0 1 .295.058.685.685 0 0 1 .375.395c.035.091.052.19.052.298a.827.827 0 0 1-.052.298zm-8.429-.84a.705.705 0 0 1 .237-.154.79.79 0 0 1 .297-.055c.118 0 .227.018.327.055a.785.785 0 0 1 .254.148l.251-.41a1.285 1.285 0 0 0-.318-.18 1.373 1.373 0 0 0-.514-.095c-.185 0-.356.032-.513.095a1.2 1.2 0 0 0-.773 1.138 1.216 1.216 0 0 0 .366.88c.114.11.25.196.407.259.157.062.328.094.513.094s.356-.032.514-.094c.118-.048.224-.108.318-.182l-.251-.41a.782.782 0 0 1-.254.149.948.948 0 0 1-.327.055.792.792 0 0 1-.297-.055.698.698 0 0 1-.395-.391.784.784 0 0 1-.057-.305c0-.111.019-.212.057-.305a.718.718 0 0 1 .158-.237zm10.249 1.441a.258.258 0 0 0-.277-.052.238.238 0 0 0-.153.22.228.228 0 0 0 .073.17.252.252 0 0 0 .18.07.251.251 0 0 0 .23-.147.225.225 0 0 0 0-.186.241.241 0 0 0-.053-.075z"/><path d="M58.66 23.83a.172.172 0 0 1-.162.106.179.179 0 0 1-.126-.05.17.17 0 0 1 .056-.282.18.18 0 0 1 .195.037.17.17 0 0 1 .05.122.166.166 0 0 1-.013.068z"/><path d="M58.587 23.77a.058.058 0 0 0 .016-.042.064.064 0 0 0-.023-.051c-.015-.013-.038-.02-.068-.02h-.107v.212h.06v-.074h.008l.06.074h.073l-.067-.076a.085.085 0 0 0 .048-.022z"/><path d="M58.511 23.748h-.045v-.04h.045c.01 0 .017.003.022.006a.017.017 0 0 1 .008.014c0 .008-.003.013-.008.015a.045.045 0 0 1-.022.005zm-.201-8.4v-.258h.106v-.071h-.292v.07h.106v.26zm.368-.118l-.083-.211h-.113v.33h.079v-.229l.075.197h.084l.076-.197v.228h.079v-.33h-.113zm-20.029 4.172a9.132 9.132 0 0 0 4.996-1.474c-.074-.057-.15-.115-.22-.174-2.125-1.81-3.343-4.43-3.343-7.181 0-2.754 1.222-5.372 3.359-7.179.054-.061.128-.118.2-.178a9.123 9.123 0 0 0-4.994-1.475c-4.983 0-9.022 3.955-9.022 8.832 0 4.877 4.04 8.83 9.024 8.83z"/><path d="M40.78 10.573c0 2.662 1.2 5.044 3.104 6.662.11.095.225.188.34.276.117-.088.23-.18.34-.276 1.903-1.618 3.104-4 3.104-6.662s-1.2-5.045-3.103-6.663a6.837 6.837 0 0 0-.34-.275 6.81 6.81 0 0 0-.341.275c-1.904 1.618-3.104 4-3.104 6.663z"/><path d="M58.824 10.573c0-4.876-4.04-8.832-9.023-8.832a9.117 9.117 0 0 0-4.994 1.475c.073.06.146.117.2.178 2.137 1.807 3.36 4.425 3.36 7.179 0 2.75-1.218 5.366-3.343 7.181-.07.059-.146.117-.22.174a9.126 9.126 0 0 0 4.996 1.474c4.984.002 9.024-3.952 9.024-8.83z"/></g></svg>