<svg xmlns="http://www.w3.org/2000/svg" viewBox="0 0 88.4996948 24.0025024"><path fill="none" d="M0 0h88.5v24.003H0z"/><g fill="#3E3E3E"><path d="M50.678 13.76l-.47-.658c-.326-.433-.604-.698-1.218-.924-.125-.04-.125-.07 0-.148.7-.433 1.122-1.681 1.122-2.91 0-2.43-1.276-3.944-3.339-3.944-2.053 0-3.348 1.524-3.348 3.943 0 2.42 1.285 3.934 3.348 3.934 1.094 0 1.68.393 2.14 1.032l.508.689c.058.059.125.069.192.02l1.046-.837c.058-.058.067-.127.02-.196zm-3.895-2.26c-1.008 0-1.64-.906-1.64-2.38 0-1.505.642-2.38 1.64-2.38 1.027 0 1.631.875 1.631 2.38 0 1.474-.614 2.38-1.631 2.38zm6.073-6.206h-1.43c-.086 0-.134.05-.134.138v7.355c0 .089.048.138.135.138h1.43c.086 0 .134-.05.134-.138V5.432c0-.089-.048-.138-.135-.138zm11.015.01h-1.448c-.077 0-.135.04-.154.118l-.71 2.91c-.173.738-.336 1.672-.384 2.37-.01.138-.173.148-.182 0-.096-.688-.26-1.641-.46-2.37l-.778-2.91c-.019-.079-.067-.118-.144-.118h-1.199c-.067 0-.125.04-.144.118l-.768 2.91c-.201.738-.364 1.682-.46 2.37-.02.148-.182.138-.192 0a17.718 17.718 0 0 0-.393-2.37l-.71-2.91c-.02-.079-.068-.118-.154-.118h-1.449c-.096 0-.144.06-.115.148l1.314 5.172c.183.737.346 1.455.48 2.183.01.089.058.128.144.128h1.92c.076 0 .133-.04.143-.128.125-.63.24-1.2.374-1.79l.336-1.406c.067-.295.144-.737.211-1.111.029-.148.154-.148.173 0 .067.384.144.836.211 1.111l.326 1.397c.144.59.26 1.17.374 1.79.01.088.058.127.144.127h1.92c.076 0 .134-.04.143-.128.135-.728.288-1.436.48-2.183l1.267-5.162c.028-.08-.02-.148-.116-.148zm2.745-.01h-1.43c-.087 0-.134.05-.134.138v7.355c0 .089.047.138.134.138h1.43c.086 0 .134-.05.134-.138V5.432c0-.089-.048-.138-.134-.138zM35.98 16.48l-.577-.147c-.028-.01-.048-.01-.076-.02-1.161-.285-2.246-.57-3.349-1.72l-.048-.05a8.975 8.975 0 0 1-.912-1.18c-.086-.127-.163-.255-.249-.393-.23-.393-.211.58-.125 1.75v.06h-.22c-1.555 0-2.85-.551-3.973-1.702-1.113-1.15-1.66-2.507-1.66-4.17 0-1.661.528-3.038 1.612-4.178 1.085-1.15 2.4-1.711 4.02-1.711 1.584 0 2.908.55 4.03 1.7 1.123 1.142 1.67 2.528 1.67 4.22 0 .216-.01.432-.029.639h-.057c-.97-.06-1.804-.05-1.862.01-.134.137.25.117.422.167.279.078.547.177.787.285.192.078.374.177.537.285.01.01.03.02.048.03 1.027.668 1.603 1.7 1.795 3.058.01.049.038.127.096.029.537-.924.825-1.642.978-2.154h.01c.029-.088.058-.186.077-.285.028-.118.048-.216.067-.304a9.4 9.4 0 0 0 .173-1.81c0-1.612-.384-3.117-1.161-4.484a8.541 8.541 0 0 0-3.205-3.235A8.752 8.752 0 0 0 30.366 0a8.235 8.235 0 0 0-4.308 1.19 8.54 8.54 0 0 0-3.157 3.255c-.767 1.367-1.151 2.88-1.151 4.484 0 1.602.384 3.107 1.151 4.464a8.424 8.424 0 0 0 3.195 3.225 8.654 8.654 0 0 0 5.364 1.111c.086-.01.173-.01.25-.02.191-.019.374-.029.556-.048.921-.08 1.794-.168 2.677-.128 1.66.068 3.339.59 5.335 2.399.191.187.46-.04.287-.266-1.736-2.212-3.223-2.812-4.586-3.186z"/><path d="M36.756 12.596c-.172-.049-.297-.01-.364.109-.096.177-.03.53.163.835.192.315.364.472.49.472.047 0 .085-.02.114-.059.077-.088.096-.265.067-.491-.019-.236-.153-.718-.47-.866zm-2.331 1.633c-.23.285-.125.796.22 1.11a.905.905 0 0 0 .595.217.64.64 0 0 0 .518-.236c.202-.285.087-.678-.297-1.012a.963.963 0 0 0-.624-.256.51.51 0 0 0-.412.177z"/></g></svg>