<svg xmlns="http://www.w3.org/2000/svg" viewBox="0 0 88.4996948 24.0025024"><path fill="none" d="M0 0h88.5v24.003H0z"/><g fill="#3E3E3E"><path d="M40.72 7.59c-.068.161-.558 1.47-1.743 2.827v-5.8l-3.157.59V15.72h3.157v-3.25c.915 1.297 1.366 3.25 1.366 3.25h3.781c-.374-1.471-2.01-4.183-2.01-4.183a12.848 12.848 0 0 0 2.216-3.949h-3.61zm10.023.009h3.06v8.122h-3.06zm8.821 8.121h3.06V4.617l-3.06.518zm-4.464 0h3.056V4.617l-3.057.518zM30.526 8.747c-.386-.024-1.282-.078-1.282-.841 0-.92 1.29-.92 1.773-.92.85 0 1.95.238 2.736.46 0 0 .44.147.812.296l.035.009V5.232l-.048-.014c-.928-.307-2.006-.602-4.006-.602-3.449 0-4.67 1.9-4.67 3.528 0 .939.424 3.147 4.374 3.402.335.02 1.223.068 1.223.856 0 .65-.727 1.034-1.95 1.034a10.1 10.1 0 0 1-3.432-.63V15.4c1.183.293 2.516.44 4.078.44 3.372 0 4.882-1.798 4.882-3.58 0-2.02-1.69-3.333-4.525-3.513z"/><ellipse cx="52.273" cy="5.393" rx="1.508" ry="1.426"/><path d="M49.019 7.48c-2.827.086-4.263 1.286-4.263 3.67v4.57h3.085v-3.726c0-1.428.198-2.04 1.99-2.099V7.521c-.302-.06-.812-.041-.812-.041z"/></g></svg>