<svg xmlns="http://www.w3.org/2000/svg" viewBox="0 0 88.4996948 24.0025024"><path fill="none" d="M0 0h88.5v24.003H0z"/><path d="M37.43 4.96l-4.997-1.98-4.992-1.979-4.991 1.98-4.997 1.98v2.301H37.43zM22.588 8.782c.296 0 .536-.217.536-.484s-.24-.483-.536-.483H19.42c-.296 0-.536.216-.536.483s.24.484.536.484h.179v6.905h-.179c-.296 0-.536.217-.536.484s.24.483.536.483h3.168c.296 0 .536-.216.536-.483s-.24-.484-.536-.484h-.179V8.782h.179zm6.437 0c.296 0 .537-.217.537-.484s-.24-.483-.537-.483h-3.168c-.296 0-.536.216-.536.483s.24.484.536.484h.18v6.905h-.18c-.296 0-.536.217-.536.484s.24.483.536.483h3.168c.296 0 .537-.216.537-.483s-.24-.484-.537-.484h-.179V8.782h.18zm6.54 0c.296 0 .536-.217.536-.484s-.24-.483-.536-.483h-3.168c-.296 0-.536.216-.536.483s.24.484.536.484h.179v6.905h-.179c-.296 0-.536.217-.536.484s.24.483.536.483h3.168c.296 0 .536-.216.536-.483s-.24-.484-.536-.484h-.18V8.782h.18zm-17.601 9.622h18.954c.282 0 .511-.207.511-.46v-.277c0-.253-.23-.46-.51-.46H17.963c-.28 0-.51.207-.51.46v.277c0 .253.23.46.51.46zm20.283.552H16.636c-.281 0-.511.208-.511.46v.415c0 .253.23.46.51.46h21.612c.28 0 .51-.207.51-.46v-.414c0-.253-.23-.46-.51-.46zm8.941-11.044c-.19-.226-.46-.383-.808-.475.271-.12.475-.276.608-.474.133-.198.2-.41.2-.63 0-.24-.072-.466-.225-.687a1.351 1.351 0 0 0-.629-.488c-.265-.106-.623-.156-1.062-.156h-2.167v5.207h2.202c.368 0 .675-.028.93-.088.256-.06.465-.142.634-.257.168-.111.311-.272.424-.484a1.38 1.38 0 0 0 .174-.681c0-.304-.092-.566-.281-.787zm-3.321-2.293h1.16c.413 0 .71.023.878.073.169.05.302.139.394.272.092.129.138.28.138.456a.702.702 0 0 1-.149.456.812.812 0 0 1-.439.257c-.148.042-.393.06-.73.06h-1.252V5.62zm2.692 3.522a.77.77 0 0 1-.291.29 1.252 1.252 0 0 1-.44.142 4.303 4.303 0 0 1-.52.023h-1.441v-1.79h1.338c.368 0 .649.027.843.087.194.06.348.161.46.304a.824.824 0 0 1 .164.506.83.83 0 0 1-.113.438zm5.298.607c-.03-.156-.046-.534-.046-1.127v-.852c0-.286-.01-.48-.036-.59a.92.92 0 0 0-.22-.437c-.101-.115-.265-.212-.49-.285-.22-.079-.51-.116-.868-.116-.363 0-.68.046-.95.134-.276.092-.486.217-.629.382a1.49 1.49 0 0 0-.312.65l.695.087c.077-.272.194-.456.353-.562.158-.106.408-.156.74-.156.358 0 .629.073.808.216.133.11.199.29.199.552 0 .023 0 .079-.005.166-.27.088-.695.162-1.267.221-.281.032-.49.065-.628.097-.19.05-.358.12-.511.212a1.07 1.07 0 0 0-.368.368.963.963 0 0 0-.138.506c0 .318.127.576.373.778.25.203.603.304 1.062.304.276 0 .537-.041.782-.124.245-.083.5-.226.761-.428.02.18.067.336.133.456h.741a1.378 1.378 0 0 1-.179-.452zm-.756-1.197c0 .281-.036.498-.112.64a1.036 1.036 0 0 1-.47.442c-.215.106-.46.161-.73.161-.277 0-.486-.055-.63-.17a.53.53 0 0 1-.117-.732.591.591 0 0 1 .281-.207c.123-.05.327-.092.618-.129.516-.064.905-.143 1.16-.24v.235zm4.429-1.22c.057.13.082.323.082.585v2.293h.71V7.893a3.34 3.34 0 0 0-.04-.621c-.041-.185-.113-.341-.22-.475s-.266-.239-.475-.322a1.887 1.887 0 0 0-.695-.124c-.582 0-1.027.207-1.334.621v-.534h-.638v3.77h.715V8.152c0-.484.107-.81.327-.985.22-.17.48-.258.782-.258.189 0 .352.037.495.115.138.078.235.18.292.308zm5.35 2.878l-1.758-2.371 1.6-1.4h-.92L58.12 7.972v-2.97h-.71v5.207h.71V8.713l.5-.433 1.385 1.929zM42.702 13.91h1.905v4.595h.762V13.91h1.91v-.612h-4.577zm6.054.866c-.138.087-.286.262-.45.53v-.571h-.638v3.77h.705V16.53c0-.272.04-.52.117-.746a.714.714 0 0 1 .266-.35.736.736 0 0 1 .419-.124c.174 0 .347.046.521.138l.245-.594a1.498 1.498 0 0 0-.73-.207.834.834 0 0 0-.455.129zm5.032 3.269c-.03-.157-.046-.534-.046-1.128v-.852c0-.285-.01-.479-.035-.59a.922.922 0 0 0-.22-.437c-.102-.115-.266-.211-.49-.285-.22-.079-.511-.115-.869-.115-.363 0-.68.046-.95.133-.276.092-.486.217-.629.382a1.49 1.49 0 0 0-.311.65l.694.087c.077-.272.195-.456.353-.562.158-.105.409-.156.74-.156.358 0 .63.074.808.216.133.11.2.29.2.553 0 .023 0 .078-.006.165-.27.088-.695.162-1.267.221-.281.033-.49.065-.628.097-.19.05-.358.12-.511.212a1.072 1.072 0 0 0-.368.368.963.963 0 0 0-.138.507c0 .317.128.575.373.778.25.202.603.304 1.063.304.276 0 .536-.042.781-.125.246-.083.501-.225.762-.428.025.175.071.332.132.456h.741a1.377 1.377 0 0 1-.179-.451zm-.75-1.202c0 .28-.036.497-.113.64a1.034 1.034 0 0 1-.47.442c-.215.106-.46.161-.73.161-.277 0-.486-.055-.629-.17a.529.529 0 0 1-.118-.732.59.59 0 0 1 .281-.207c.123-.051.327-.093.619-.13.516-.064.904-.142 1.16-.239v.235zm4.96-1.75a1.118 1.118 0 0 0-.475-.322 1.887 1.887 0 0 0-.695-.124c-.582 0-1.027.207-1.333.622v-.534h-.639v3.775h.715v-2.058c0-.484.108-.81.327-.985.22-.17.48-.258.782-.258.189 0 .353.037.496.115.138.078.235.18.29.308.057.13.083.323.083.585v2.293h.71v-2.32c0-.295-.016-.503-.041-.622a1.132 1.132 0 0 0-.22-.475zm3.898 1.419a9.97 9.97 0 0 0-1.052-.295 11.926 11.926 0 0 1-.628-.161.626.626 0 0 1-.271-.17.35.35 0 0 1-.087-.226c0-.13.071-.244.21-.34.142-.097.372-.148.7-.148.275 0 .485.05.638.16a.675.675 0 0 1 .276.457l.695-.088a1.312 1.312 0 0 0-.246-.585c-.122-.142-.301-.257-.551-.345a2.584 2.584 0 0 0-.864-.129c-.22 0-.424.028-.613.079a1.687 1.687 0 0 0-.45.189 1.1 1.1 0 0 0-.347.359.867.867 0 0 0-.128.465c0 .184.051.354.154.506.102.152.255.272.454.36.205.087.562.188 1.083.307.389.088.629.162.726.217.138.083.21.198.21.34 0 .162-.077.3-.236.42-.158.12-.398.18-.725.18-.327 0-.577-.07-.756-.203a.88.88 0 0 1-.327-.585l-.7.101c.076.4.26.704.541.912.281.202.7.304 1.242.304.327 0 .623-.056.884-.157.26-.101.46-.249.597-.437a1.04 1.04 0 0 0 .205-.603.87.87 0 0 0-.169-.548 1.046 1.046 0 0 0-.465-.336zM64.4 13.91c.087-.082.24-.124.454-.124.133 0 .271.014.42.037l.107-.557a4.02 4.02 0 0 0-.665-.065c-.311 0-.551.056-.725.157a.842.842 0 0 0-.363.405c-.05.124-.076.313-.076.566v.4h-.629v.498h.624V18.5h.72v-3.273h.817v-.502h-.817v-.35c0-.225.046-.382.133-.465zm4.833 2.698c0-.621-.179-1.105-.531-1.45-.353-.345-.808-.516-1.37-.516-.577 0-1.047.175-1.41.525-.362.35-.541.843-.541 1.478 0 .617.179 1.091.536 1.432.358.34.843.51 1.456.51.49 0 .89-.105 1.2-.317.312-.211.527-.51.645-.897l-.731-.083c-.107.266-.255.465-.455.589a1.153 1.153 0 0 1-.664.184c-.347 0-.639-.11-.874-.331-.23-.221-.362-.54-.388-.953h3.122c.005-.074.005-.134.005-.17zm-3.076-.354c.026-.327.148-.59.368-.787.225-.198.496-.295.823-.295.357 0 .654.124.878.368.143.157.235.396.266.714h-2.335zm5.033-1.478c-.138.087-.287.262-.45.53v-.571h-.639v3.77h.705V16.53c0-.272.041-.52.118-.746a.715.715 0 0 1 .266-.35.737.737 0 0 1 .419-.124 1.1 1.1 0 0 1 .52.138l.246-.594a1.497 1.497 0 0 0-.73-.207.835.835 0 0 0-.455.129z" fill="#3E3E3E"/></svg>