<svg xmlns="http://www.w3.org/2000/svg" viewBox="0 0 88.4996948 24.0025024"><path fill="none" d="M0 0h88.5v24.003H0z"/><path d="M29.801 3.98h-.367c-1.47.248-2.694.994-3.796 2.113-.857.995-1.347 2.238-1.47 3.605 0 .374 0 .374.368.374.49-.125.98-.125 1.47-.374 2.448-.994 3.795-2.735 4.04-5.346.123-.373.123-.373-.245-.373zm-5.265 6.962c-.49 0-.49 0-.49.373v.373c.245 1.74 1.102 3.108 2.45 4.227.979.746 1.958.995 3.06 1.119.368 0 .368 0 .368-.373.122-1.368-.49-2.735-1.47-3.73-1.102-1.119-2.449-1.74-3.918-1.99zm9.061-6.962h-1.714c-.368 0-.368 0-.368.497V16.66c0 .373 0 .373.368.373h1.592c.49 0 .49 0 .49-.498V4.353c0-.25 0-.374-.368-.374zm-10.653 0h-1.47c-.611 0-.856.372-.856.87v11.81c0 .373 0 .373.367.373h1.47c.49 0 .734-.249.734-.746V4.352c.123-.248 0-.373-.245-.373zm17.877 3.73c-1.469-.374-3.06-.25-4.53.123-.123 0-.245.125-.245.373v.995c0 .497 0 .497.49.497.98-.124 1.959-.124 2.938-.124.49 0 .858.373.98.87v.498c0 .621 0 .621-.612.621-.98 0-1.837 0-2.694.249s-1.47.746-1.714 1.74a4.78 4.78 0 0 0 0 1.866c.245.87.734 1.492 1.592 1.74.98.249 1.959.249 2.816-.248.245-.125.49-.374.734-.498v.124c0 .498.123.498.49.498h1.47c.245 0 .367-.124.367-.373v-6.465c0-1.492-.857-2.487-2.082-2.487zm-.367 6.216v.621c0 .25-.122.373-.367.498-.613.248-1.102.373-1.715.248-.367 0-.612-.248-.612-.621s0-.746.123-1.12c.122-.372.367-.621.734-.621.49-.124 1.102-.124 1.715-.124 0 0 .122.124.122.248v.87zm25.591-6.59c-.49-.124-.98-.248-1.47-.248-1.224 0-2.326.124-3.428.372-.245.125-.367.25-.367.498v.994c0 .498 0 .498.49.498.98-.125 1.959-.125 2.938-.125.613 0 .98.373 1.102.995v.87c0 .25-.122.25-.244.25H63.84c-.612 0-1.347.123-1.959.372-.857.249-1.47.746-1.592 1.74v1.244c0 1.616 1.225 2.61 2.816 2.487.858 0 1.592-.25 2.204-.747 0-.124 0-.124.123-.124v.249c0 .497.122.497.49.497h1.47c.49 0 .489-.124.489-.497V9.698c-.123-1.243-.735-1.989-1.837-2.362zm-.612 6.59v.746c0 .124-.123.248-.123.373-.612.248-1.224.373-1.836.248-.49-.124-.735-.373-.735-.994 0-.995.123-1.368 1.347-1.492h1.102c.122 0 .245.124.245.248v.87zm-8.693-6.59c-1.103-.248-2.327-.124-3.307.622-.122.124-.245.124-.367.248V7.71c0-.249 0-.373-.367-.373h-1.592c-.245 0-.368 0-.368.373v8.827c0 .374 0 .498.368.498h1.714c.245 0 .367-.124.367-.373v-6.465c0-.124 0-.373.123-.373.612-.373 1.347-.622 2.081-.498.49 0 .735.249.857.747.123.248.123.62.123.87v5.594c0 .498.122.498.49.498h1.592c.49 0 .49 0 .49-.498v-5.719c0-.497-.123-.994-.368-1.492-.122-.994-.735-1.74-1.837-1.99zm-7.347-.124c-.735 0-1.347.248-1.96.746-.122 0-.122.124-.244.248v-.248c0-.373-.123-.498-.49-.498h-1.47c-.49 0-.49.125-.49.498v8.703c0 .373.123.497.49.497h1.592c.49 0 .49-.124.49-.497v-6.34c0-.25 0-.374.245-.374.612-.249 1.224-.497 1.959-.497.245 0 .367-.125.367-.373V7.709c-.122-.373-.245-.497-.49-.497z" fill="#3E3E3E"/></svg>