<svg xmlns="http://www.w3.org/2000/svg" viewBox="0 0 104.1357117 48.9221458"><path fill="none" d="M0 0h104.136v48.922H0z"/><path d="M72.612 23.174h8.256v2.4h-2.88V35.75h-2.496V25.574h-2.88v-2.4zm-10.656 0h2.208l4.896 7.68v-7.68h2.496V35.75h-2.208l-4.896-7.68v7.68h-2.496V23.174zm-7.872 0h6.528v2.4h-5.76v2.688h4.896v2.4h-4.896v2.688h5.76v2.4h-6.528v4.224h-.48V18.662h.48v4.512zm-19.872 0h8.256v2.4h-5.664v2.688H41.7v2.4h-4.896v2.688h5.664v2.4h-8.256V23.174zm-10.944 0h2.304l4.8 7.68v-7.68h2.496V35.75H30.66l-4.896-7.68v7.68h-2.496V23.174zm20.352 0h8.256v2.4h-2.88V35.75H46.5V25.574h-2.88v-2.4z" fill="#3E3E3E"/></svg>