<svg xmlns="http://www.w3.org/2000/svg" viewBox="0 0 104.1357117 48.9221458"><path fill="none" d="M0 0h104.136v48.922H0z"/><g fill="#3E3E3E"><path d="M22.485 27.07a.928.928 0 0 0 .922-.922c0-.786.688-1.13 1.376-1.13h.049c.688 0 1.376.344 1.376 1.13 0 .504.417.922.921.922s.934-.418.934-.922c0-1.72-1.352-2.973-3.219-2.973h-.05c-1.879 0-3.23 1.241-3.23 2.973a.92.92 0 0 0 .921.922zm5.578 5.712c0-.503-.418-.921-.922-.921s-.921.405-.921.921c0 .786-.688 1.13-1.376 1.13h-.05c-.687 0-1.375-.344-1.375-1.13a.928.928 0 0 0-1.855 0c0 1.72 1.351 2.973 3.219 2.973h.049c.245 0 .491-.024.712-.061l.811 1.585c.16.307.663.38 1.106.147.454-.233.688-.676.528-.983l-.786-1.585c.54-.528.86-1.253.86-2.076z"/><path d="M23.394 31.873v-4.816a1.289 1.289 0 0 1-1.855-.024v4.852c.234-.245.565-.405.934-.405.368.012.688.147.921.393zm2.814-4.84v4.852a1.29 1.29 0 0 1 .933-.405c.357 0 .676.147.91.38v-4.803a1.288 1.288 0 0 1-.922.381c-.356 0-.688-.16-.921-.405zm16.13.037a.928.928 0 0 0 .921-.922c0-.786.688-1.13 1.376-1.13h.05c.687 0 1.375.344 1.375 1.13 0 .504.418.922.922.922s.921-.418.921-.922c0-1.72-1.351-2.973-3.219-2.973h-.049c-1.867 0-3.218 1.253-3.218 2.973a.92.92 0 0 0 .921.922zm4.656 4.79a.928.928 0 0 0-.921.922c0 .786-.688 1.13-1.376 1.13h-.05c-.687 0-1.375-.344-1.375-1.13 0-.503-.418-.921-.922-.921s-.921.418-.921.921c0 1.72 1.351 2.973 3.219 2.973h.049c1.867 0 3.218-1.253 3.218-2.973a.92.92 0 0 0-.92-.921z"/><path d="M43.247 31.873v-4.816a1.289 1.289 0 0 1-1.855-.024v4.852a1.29 1.29 0 0 1 .934-.405c.368.012.688.16.921.393zm14.325-4.803a.928.928 0 0 0 .921-.922c0-.786.688-1.13 1.376-1.13h.05c.687 0 1.375.344 1.375 1.13 0 .504.418.922.921.922a.928.928 0 0 0 .922-.922c0-1.72-1.352-2.973-3.219-2.973h-.05c-1.866 0-3.218 1.253-3.218 2.973 0 .504.418.922.922.922z"/><path d="M58.272 27.414a1.219 1.219 0 0 1-1.032.11l3.649 4.963c.049-.356.233-.688.552-.884a1.258 1.258 0 0 1 1.008-.123l-3.637-4.926c-.049.356-.233.675-.54.86z"/><path d="M62.228 31.86a.928.928 0 0 0-.922.922c0 .786-.688 1.13-1.376 1.13h-.049c-.688 0-1.376-.344-1.376-1.13a.928.928 0 0 0-.921-.921.928.928 0 0 0-.921.921c0 1.72 1.35 2.973 3.218 2.973h.05c1.867 0 3.218-1.253 3.218-2.973a.92.92 0 0 0-.921-.921zm-26.991 0a.928.928 0 0 0-.921.922c0 .786-.688 1.13-1.376 1.13h-.05c-.687 0-1.387-.356-1.387-1.13 0-.503-.418-.921-.922-.921s-.921.405-.921.921c0 1.72 1.351 2.973 3.218 2.973h.05c1.867 0 3.218-1.253 3.218-2.973a.895.895 0 0 0-.909-.921zm0-8.685a.928.928 0 0 0-.921.922v7.752c.233-.246.565-.406.933-.406.357 0 .676.148.91.381v-7.727a.92.92 0 0 0-.922-.922zm-3.722 8.649v-7.727a.928.928 0 0 0-1.855 0v7.752a1.289 1.289 0 0 1 1.855-.025zm8.206-4.275v-3.452a.928.928 0 0 0-.921-.922.928.928 0 0 0-.921.922v10.737c0 .504.417.921.92.921a.928.928 0 0 0 .922-.921v-7.285zm34.239.012v-3.464a.928.928 0 0 0-.921-.922.928.928 0 0 0-.922.922v10.737c0 .504.418.921.922.921a.928.928 0 0 0 .921-.921V27.56zm3.33 1.351l-.37-.749-.454-.921-1.02-2.064v9.656c0 .504.418.921.922.921a.928.928 0 0 0 .921-.921v-5.922zm3.476 2.015l-1.855-3.76-.442-.896-1.253-2.506c-.246-.504-.824-.725-1.278-.504s-.627.823-.38 1.315l1.228 2.494.454.921 1.917 3.858 1.634 3.304c.245.504.823.725 1.277.504.455-.221.627-.823.381-1.315l-1.683-3.415zm1.83.443v-7.274c0-.504-.417-.922-.92-.922s-.922.418-.922.922v5.983l.344.7 1.498 3.035V31.37zm-31.83-3.121l-1.573 2.273c-.233.344-.086.86.332 1.155.418.282.958.245 1.191-.099l1.622-2.346 1.781-2.592.43-.627 1.192-1.732c.234-.344.086-.86-.332-1.155-.417-.282-.958-.246-1.191.098l-1.18 1.72-.43.627-1.842 2.678zm4.115 4.386L53.69 30.3l-.282-.566-.405-.798-.344.504-.848 1.228.246.48 1.228 2.407 1.057 2.052c.16.307.663.38 1.105.147.455-.233.688-.675.529-.983l-1.094-2.137zm-3.956-5.258v-3.342c0-.504-.417-.921-.921-.921s-.934.417-.934.921v6.02l1.389-2.015.466-.663z"/><path d="M49.316 31.984a2.005 2.005 0 0 1-.246-.21v2.998c0 .504.418.922.922.922a.928.928 0 0 0 .921-.922V31.91a1.11 1.11 0 0 1-.81.332c-.271 0-.554-.099-.787-.258zM68.48 23.09l.013-.013H65.25c-.442 0-.811.356-.811.946s.369.946.81.946h3.011c.65.049.933.946.933 1.72v.073c0 .774-.294 1.794-.933 1.843h-3.01c-.442 0-.811.357-.811.946 0 .59.369.946.81.946h3.257c0-.012-.012-.012-.012-.024 1.364-.185 2.334-1.696 2.334-3.723v-.061c0-2.027-.97-3.416-2.346-3.6zm-2.186 7.788H65.25a1.13 1.13 0 0 1-.811-.332v4.288c0 .504.418.921.921.921a.928.928 0 0 0 .922-.921v-3.956h.012z"/><path d="M66.294 28.237v-2.888H65.25a1.13 1.13 0 0 1-.811-.331v3.55a1.11 1.11 0 0 1 .81-.331h1.045z"/></g></svg>