<svg xmlns="http://www.w3.org/2000/svg" viewBox="0 0 104.1357117 48.9221458"><path fill="none" d="M0 0h104.136v48.922H0z"/><g fill="#3E3E3E"><path d="M21.01 27.264c.034-.069.138-.103.207-.172.137-.07.24-.138.413-.138 0 0-.034.069-.069.069-.172.103-.31.206-.448.344 0 0-.069.035-.103.07-.035-.07-.035-.139 0-.173zm-.207-.31v-.345c.069.138.034.31.034.448 0 .172 0 .345-.069.552H20.7c.034-.276.068-.448.103-.655zm-.103-1.93h.344c.104 0 .207-.07.345-.07a.479.479 0 0 1-.345.173h-.31c-.034-.035-.034-.035-.034-.104zm-.31-.207v-.38h.068v.69c0 .069 0 .172-.138.207.035-.138.07-.345.07-.517zm-5.205-1.448c0-.034.034-.069.068-.069-.068.517-.068 1.138.207 1.62v.103c-.241-.172-.344-.448-.413-.723 0-.345 0-.655.138-.931zm-.517.138a1.97 1.97 0 0 1-.242-.276c.07.035.173.138.207.172.069.104.172.173.241.31-.069-.034-.138-.137-.206-.206zm.206.758v-.138c.07.104.104.242.173.345.069.138.138.31.24.414.173.172.346.413.449.689a1.837 1.837 0 0 1-.862-1.31zm-5.239 1.62c.069.035.138.07.172.138a2 2 0 0 0 .276.207c-.241 0-.379-.172-.448-.345zm.483.62H9.67c.068-.068.206-.068.344-.068h.587c-.139.069-.311.069-.483.069zm-.862 1.793c-.138 0-.172-.138-.207-.241a.646.646 0 0 1 .207.241zm.034.414c-.172-.173-.344-.38-.62-.414a.99.99 0 0 0-.31.069c.069-.138.241-.172.344-.138.173 0 .345.138.483.241.138.138.241.276.31.448-.103-.034-.138-.103-.207-.206zm12.064 11.753c.173.035.31.207.345.38a.313.313 0 0 1-.276-.138.64.64 0 0 1-.069-.242zm.173-11.857c.069-.172.138-.344.172-.586 0-.034 0-.069.069-.138v.38a.824.824 0 0 1-.172.482c-.104.138-.242.207-.414.31-.172.104-.345.242-.517.276a1.305 1.305 0 0 1-.517 0c.069-.069.138-.069.207-.103l.62-.207c.207-.07.448-.207.552-.414zm-.965.242c.206-.07.413-.035.62-.07-.069.104-.172.138-.31.173-.172.034-.345.103-.517.103.069-.069.138-.172.207-.206zm.034-1.586c0-.035.035-.069.069-.103v.999h-.034c-.07-.31-.104-.62-.035-.896zm-.172.207c0-.035.034-.07.069-.138 0 .138-.035.241-.035.345v.758a.667.667 0 0 1-.344.586c-.138.069-.31.138-.483.103.207-.138.414-.31.517-.517.241-.31.138-.758.276-1.137zm-.345.758c.035-.103.069-.207.138-.31 0 .138 0 .241-.035.345-.068.344-.31.62-.62.792-.103.035-.172.07-.31.07.345-.208.655-.518.827-.897zm-1.551.862c.069-.104.069-.207.172-.31 0 .137 0 .31-.069.413-.034.104-.172.104-.275.138.034-.069.103-.172.172-.241zm-1.103-.207c-.138 0-.241.069-.38.034.104-.034.277-.103.38-.034zm-.758-.069c-.138.069-.207.172-.345.241.069-.241.241-.482.483-.586.206-.138.448-.172.689-.206-.276.206-.552.379-.827.551zm-.173.862a1.006 1.006 0 0 1-.31.069c.035-.31.172-.586.448-.759-.069.138-.172.242-.172.414a.97.97 0 0 1 .034.276zm2.24-2.068a2.78 2.78 0 0 1-1.068.344c-.207.07-.482.07-.724.173a1.315 1.315 0 0 0-.586.413 1.216 1.216 0 0 0-.275.448 1.943 1.943 0 0 1-.138.414c-.035.138-.035.31-.07.448-.034.138-.171.207-.31.31 0-.138 0-.241.07-.344.069-.242.172-.483.24-.724.07-.207.07-.448.242-.655.241-.276.552-.448.896-.586.242-.069.483-.069.724-.069s.448-.069.69-.138c.137-.034.31-.138.448-.138.034 0-.035.07-.138.104zm-1.688 10.168c.069.069.172.172.31.241.035.035.38.448.414.517.103.207.206.414.344.62.07.139.207.242.276.38 0 0-.069 0-.138-.035-.138-.034-.241-.138-.344-.206-.07-.07-.173-.242-.242-.345a3.968 3.968 0 0 0-.482-.586 2.562 2.562 0 0 1-.448-.724v-.069c.103.035.172.138.31.207zm-3.481 1.275c-.276.138-.518.345-.793.552a1.74 1.74 0 0 1-.793.31c-.069 0-.172 0-.241-.035v-.034c.138 0 .241 0 .379-.069.31-.103.517-.31.758-.482.31-.242.586-.552.93-.759.07-.034.483-.172.587-.172h.448c0 .034-.035.069-.07.103-.171.138-.413.207-.62.276a9.17 9.17 0 0 1-.585.31zm.103.207c0 .276-.172.517-.345.69a.808.808 0 0 1-.344.172c-.242.069-.517 0-.759-.104.138-.069.31-.069.414-.138.138-.068.276-.172.413-.275s.276-.173.414-.31c.104 0 .172-.035.207-.035zm-.724-1.792v.138a1.947 1.947 0 0 1-.31.482c.034-.172.069-.345.069-.586v-.413c0-.138 0-.345.138-.483 0 .172 0 .69.103.862zm.448-1.517v-.345c0 .138.035.173.07.276.068.31.31.586.31.93a.527.527 0 0 1-.139.345 2.375 2.375 0 0 1-.103-.275c-.034-.173-.034-.345-.069-.483a3.62 3.62 0 0 0-.069-.448zm1.448 1.344c.034.138 0 .207-.07.242-.137.069-.31 0-.447 0 0 0 .207-.173.276-.242.034-.069.069-.241.069-.275.137.172.172.275.172.275zm-.517-.758c.069.138.138.345.103.517 0 .138-.138.172-.138.172-.103.035-.24.035-.344.035 0 0 .103-.172.103-.414 0-.138 0-.31-.069-.413-.069-.242-.172-.448-.241-.69-.035-.172-.138-.31-.172-.482-.035-.173-.104-.31-.138-.483 0-.207.034-.448.103-.655a.19.19 0 0 1 .103-.172c0 .172-.068.345-.068.517s0 .414.034.586c.069.276.172.517.345.793.034.103.379.689.379.689zm.965 1.172c0 .207-.138.241-.241.345-.138.138-.414.069-.586.069h-.173c-.069 0-.172.034-.275.069-.07 0-.345.172-.345.172l-.31.207a3.65 3.65 0 0 1-.414.344l-.414.414a1.423 1.423 0 0 1-.379.241c-.069.035-.172.104-.31.07.035 0 .069-.07.103-.07.31-.172.586-.448.759-.793.069-.103.31-.482.413-.585.138-.138.276-.31.449-.38.068 0 .206-.069.275-.069h.448c.173 0 .414 0 .552-.172.172-.138 0-.517 0-.517s-.276-.551-.517-.827c-.07-.07-.69-1-.758-1.448v-.517c0-.034 0-.138.034-.172 0 .069.034.241.034.31 0 .448.31 1.103.586 1.448.207.31.414.586.62.93.208.173.449.793.449.93zm.276-.655c.034.172.138.414.138.62v1.138c.034.241.137.483.344.62.173.104.414.07.655.035.172-.035.38-.07.586-.035.138 0 .31.104.31.276-.103-.034-.206-.103-.31-.103-.241 0-.517 0-.724.172-.103.069-.241.172-.379.172-.103 0-.207-.069-.31-.137-.138-.138-.276-.276-.345-.449-.103-.31 0-.792.035-1.068v-.345c0-.413-.414-1.172-.483-1.31a9.76 9.76 0 0 0-.69-.965c-.068-.103-.206-.413-.24-.448-.07-.138-.138-.413-.173-.586.035.07.138.207.172.276.07.103 1.069 1.379 1.31 1.896.035.034.07.207.104.241zm.758 2.034c.069.069.172.103.241.172a.656.656 0 0 1-.586-.241c-.103-.207-.103-.62-.069-.93 0 .275.07.516.138.654a.938.938 0 0 0 .276.345zm-.069-1.034c.069.172.138.379.31.517.207.206.517.275.69.482v.035a2.34 2.34 0 0 1-.69-.242c-.138-.069-.207-.24-.241-.379-.103-.103-.103-.241-.069-.413zm-.345-1.965c.242.414.242.862.173 1.24-.035.139-.104.518-.138.69 0-.241-.035-.793-.138-1.068 0-.035-.138-.345-.172-.448l-.31-.517c-.173-.242-.587-.793-.724-.931a4.932 4.932 0 0 1-.38-.517c-.206-.345-.448-.758-.586-1.138-.034-.138-.103-.24-.103-.379.069.07.103.173.172.276.276.517.62.965 1.034 1.379l.449.448c.103.069.585.724.723.965zm-2.723-5.377c.035-.104.138-.241.138-.345.07-.207.035-.448.035-.69 0-.31.034-.62.172-.93.069-.138.138-.241.241-.345v.62c-.034.346-.103.69-.172 1.035-.069.31-.069.655-.069 1l-.345-.345zm.207.896a1.71 1.71 0 0 0-.69-.276h-.344c-.172 0-.31.104-.482.138.034-.103.172-.172.24-.241.242-.138.587-.241.863-.173.172.035.31.138.413.31.035.07.104.173 0 .242zm.276-1.24c.034-.38.138-.76.172-1.138v-.965c0-.138.104-.276.173-.38-.035.242 0 .517-.035.759-.069.31-.103.62-.103.93 0 .173-.035.345-.035.517 0 .38.07.759.104 1.138 0 .241 0 .482.069.724.069.413.275.827.551 1.206.207.31.517.517.793.758.241.173.448.414.62.62.138.173.242.346.31.587 0 .034.07.448.07.551 0-.034-.035-.138-.035-.172-.034-.138-.103-.241-.138-.345-.069-.172-.207-.344-.345-.517-.275-.31-.62-.517-.965-.758-.31-.207-.586-.448-.792-.793-.173-.31-.31-.62-.345-.965a8.28 8.28 0 0 1-.138-.93c.034-.31.034-.552.069-.828zm2.86 4.446c0-.035-.068-.07-.068-.104-.138-.379-.448-.655-.758-.93l-.517-.414c-.414-.31-.69-.758-.862-1.207a4.066 4.066 0 0 1-.138-.689c0-.207-.069-.413-.069-.62 0-.242-.103-.517-.103-.759.069.07.069.173.137.276.104.241.173.483.207.758.07.38.104.793.31 1.138.138.172.207.345.345.482.104.138.207.242.345.345s.276.172.413.31c.276.242.552.517.655.862.07.172.138.345.104.552zm-1.412-4.343c0-.31.034-.62.172-.931.138-.31.345-.586.38-.965.034-.483-.104-.965-.208-1.482-.034-.138-.069-.276-.069-.414s-.034-.241 0-.345c.138.207.207.448.31.69.035.103.035.206.07.344 0 .173.068.345.137.517v.242c-.103.172-.103.344-.103.482 0 .242-.069.483-.138.724a2.985 2.985 0 0 0-.172.517c-.035.172-.104.345-.104.517 0 .172-.069.31-.172.448-.138-.069-.138-.207-.103-.344zm4.55-4.723c.103-.069.206-.103.31-.206.069-.104.103-.242.206-.345v.172c-.034.173-.103.345-.24.448-.139.138-.345.173-.518.207a.621.621 0 0 1 .241-.276zm-.138-.31c0 .07.069.138.069.207s-.07.069-.138.103v-.24c0-.139-.07-.242-.104-.346.104.035.104.207.173.276zm-.793 1.482c.172-.103.31-.207.413-.379.07-.069.104-.172.173-.207.138-.069.276-.138.413-.172a1.39 1.39 0 0 0 .31-.172v.137a.528.528 0 0 1-.344.242 1.032 1.032 0 0 0-.345.138c-.138.069-.241.206-.344.31-.138.103-.242.172-.414.207.069-.035.103-.07.138-.104zm-1.138-.034c.07-.07.104-.173.173-.241 0 .137-.07.206-.138.31-.035.069-.07.172-.173.138a.721.721 0 0 1 .138-.207zm-.724.448c.276-.069.552-.069.828-.035.241 0 .448.035.69 0a.932.932 0 0 0 .516-.172c.172-.138.345-.31.517-.482.07-.07.138-.07.207-.104-.034.069-.069.172-.138.207-.207.207-.482.38-.793.517-.206.069-.448.172-.689.207-.138 0-.276.034-.414.069-.138.034-.31 0-.448.069-.172.034-.379.069-.551.172-.173.069-.31.207-.448.345a1.047 1.047 0 0 0-.173.24c0-.137.07-.275.138-.413.138-.31.448-.551.758-.62zm.31-1.551c-.068.103-.172.207-.24.31-.138.207-.242.448-.242.69v.344a.263.263 0 0 1-.172.069c-.104.034-.173.103-.31.172.069-.172.137-.31.172-.482.069-.31.138-.62.345-.93.137-.139.275-.277.413-.414.104-.07.207-.173.345-.242-.069.242-.207.31-.31.483zm.897-.517c-.104.103-.276.138-.414.172.104-.172.276-.172.414-.172zm.172-1.655c0 .138 0 .276-.103.38a.41.41 0 0 1 .103-.38zm-.551-.207a1.093 1.093 0 0 0-.173-.206v-.035c.173.07.31.276.345.448-.069-.034-.138-.138-.172-.207zm-.07 1.345c.104-.104.173-.173.242-.276a.99.99 0 0 0 .069-.31v-.414c.069.07.103.207.138.31.034.173 0 .345-.104.483s-.172.31-.31.414c-.207.24-.517.448-.793.654a.618.618 0 0 1-.24.173c0-.07.068-.138.137-.207.276-.276.552-.552.862-.827zm-1.654 1.999c.104-.241.138-.483.207-.758.07-.173.138-.31.276-.448.069-.07.172-.173.276-.207-.07.172-.242.31-.345.482-.103.207-.069.483-.103.724 0 .138 0 .241-.07.38-.103.275-.24.516-.31.827-.069-.07-.069-.173-.069-.242v-.31c.035-.138.104-.276.138-.448zm-2.86-3.033a.49.49 0 0 1 .31.275c-.138-.103-.242-.172-.31-.275zm.172-.138c.103.034.172.138.276.172.068.07.172.104.24.207a1.008 1.008 0 0 1-.413-.241s-.034-.07-.103-.138zm.827.793c-.241-.138-.483-.276-.62-.517.069 0 .103.034.172.068.138.07.241.138.38.173.206.069.413.241.516.413a.862.862 0 0 1-.448-.137zm1 1.344c-.104-.138-.242-.241-.345-.345-.103-.138-.241-.241-.31-.413-.07-.138-.173-.242-.207-.345.241.103.517.31.586.586.069.207.241.413.345.586.103.138.24.276.344.413a.55.55 0 0 0 .31.242c0 .138-.069.31-.172.413a.263.263 0 0 1-.069-.172c-.069-.207-.207-.38-.31-.586 0-.138-.069-.241-.172-.38zm-.517 3.757c.206-.069.344-.241.413-.448.07-.276.138-.517.173-.793 0-.276.034-.517.068-.793h.035c.034.276.069.517.103.793 0 .207 0 .414-.069.62-.034.173-.137.345-.24.518-.07.137-.173.31-.346.344-.103.035-.275 0-.31-.138.07-.069.138-.069.173-.103zm.275.483c0 .137-.034.31-.069.448-.069-.173-.137-.31-.172-.448.035-.035.138-.035.241 0zm-.69-.62c.035.171.104.344.173.516.07.241.207.483.31.758.07.207.138.414.173.62.069.242.069.518.138.794 0 .172.103.344.138.551-.138-.103-.173-.241-.242-.345-.172-.344-.241-.723-.31-1.068 0-.172-.103-.345-.172-.517-.07-.207-.173-.414-.242-.62-.034-.138-.068-.276-.068-.414v-.414c.068-.034.068.035.103.138zm-.206-3.517c.035 0 .104.035.138.07.103.137.138.31.138.447 0 .07.034.173 0 .276l-.207.207c.069-.207.138-.448.103-.69-.034-.103-.103-.206-.172-.31zm-.138 1.379c.07-.034.173-.069.207-.138.138-.103.241-.241.345-.345.103-.068.207-.172.31-.24 0 .103-.069.206-.172.275-.173.138-.38.207-.517.414-.104.137-.173.275-.31.413.103-.138.103-.276.137-.379zm0 .517c.07-.138.138-.276.242-.38a1.38 1.38 0 0 1 .413-.344c0 .173-.172.276-.276.38-.103.103-.137.24-.206.379a.618.618 0 0 0-.173.24 4.554 4.554 0 0 1-.344.518c-.173.241-.31.517-.31.793 0 .206 0 .413-.035.62-.07 0-.138-.069-.172-.103-.035-.07 0-.138 0-.207.034-.241.034-.448.103-.69.069-.24.207-.482.345-.689.138-.172.31-.345.413-.517zm-.379-.551v-.345c.069.138.104.276.138.413 0 .242-.103.518-.241.724-.035.104-.104.173-.173.276 0-.38.207-.724.276-1.068zm-.172-.586c.034.24 0 .482-.07.723-.034.104-.068.242-.137.345-.069-.172-.035-.379-.035-.586v-.69c0-.137 0-.24-.034-.344.172.103.241.345.276.552zm-.414-1.31v.241c0 .103.035.172.07.276-.07-.035-.139-.104-.139-.173a.33.33 0 0 1 .07-.344zm-.276.31c.173.241.276.586.276.93h-.172c-.035-.068-.035-.172-.035-.24-.069-.242-.172-.483-.069-.69zm.242 1.482c-.07-.034-.104-.103-.138-.172a1.928 1.928 0 0 1-.241-.276c.137.035.275.069.413.069-.034.138-.034.241-.034.38zm-1.241-2.31c-.138-.068-.276-.137-.345-.275l.414.207c.069 0 .138.069.172.103 0 .035.035.104.035.138-.07-.034-.173-.138-.276-.172zm.413-.068c-.069-.31-.172-.69-.034-1 .034.104 0 .241 0 .345 0 .138.034.31.069.448.069.31.241.517.31.827.035.173.069.345.069.517 0 .138.069.31.069.448-.069-.069-.103-.172-.138-.275-.138-.414-.241-.897-.345-1.31zm-.034 1.482c-.138-.035-.207-.138-.31-.241a.556.556 0 0 1-.138-.242c.207.138.345.31.448.483zm-.552-.483c.07.104.104.242.173.345.103.138.241.207.379.31a.27.27 0 0 1 .138.138c-.138 0-.31-.069-.448-.103-.138 0-.276 0-.414-.035.035-.069.104-.103.104-.172 0-.103 0-.207-.035-.31 0-.07-.069-.173-.138-.242.104-.034.207 0 .241.07zm-.758-.103c-.172-.172-.379-.345-.482-.586a1.164 1.164 0 0 1-.035-.69c.07.139.035.31.104.414.034.138.103.31.206.414.138.172.345.276.517.414.173.103.242.31.207.517-.069 0-.069-.104-.138-.138-.069-.138-.241-.242-.379-.345zm1.034 1.069c-.241-.07-.482-.07-.758-.07-.069 0-.172 0-.241-.034h.655c.31 0 .62.069.896.207.207.138.413.31.517.517v.103c-.104-.103-.173-.24-.276-.31-.207-.241-.483-.345-.793-.413zm-.069.585c.07 0 .173 0 .276.035 0-.069-.034-.138-.034-.172 0-.07.068-.104.103-.173.172.07.345.173.448.31.172.207.31.449.38.724.034.07.103.173.068.242 0 .137-.069.24-.069.413.035.31 0 .655-.069.965h-.034c-.07-.172-.104-.379-.207-.551-.069-.138-.207-.241-.345-.31-.069-.035-.138-.07-.138-.138-.034-.07-.103-.173-.103-.31s.069-.276 0-.414c-.034-.172-.241-.276-.31-.448.034-.035.034-.104.034-.173zm.207 1.31c-.069 0-.138-.034-.138-.103 0-.207.07-.414.07-.62a.576.576 0 0 1 .034.413c-.035.069 0 .207.034.31zm-.896-.655c.069.104.103.207.172.31.138.173.345.31.517.449.207.138.448.207.62.379a.822.822 0 0 1 .208.379c.068.207.137.448.344.586.104.069.241.138.276.276 0 .138-.069.241-.138.344-.069-.103-.172-.24-.241-.344-.104-.138-.138-.31-.207-.414-.103-.241-.138-.482-.31-.69a1.161 1.161 0 0 0-.586-.378c-.207-.104-.448-.173-.586-.414a2.034 2.034 0 0 1-.07-.483zm1.792 2.723c-.069 0-.138 0-.172-.034-.138-.138-.172-.31-.241-.448 0-.104-.07-.241-.035-.345.138.173.173.345.241.517.07.07.138.173.207.31zm-1.999-2.309a1.273 1.273 0 0 0-.241-.483c-.07-.068-.173-.137-.241-.206.172 0 .31.172.413.31.138.172.104.413.241.62.07.104.207.138.31.242-.068 0-.137 0-.206-.035-.173-.138-.207-.31-.276-.448zm.586.552c.207 0 .448.034.62.206-.103 0-.172-.034-.31-.034-.172-.035-.413 0-.586.034-.172 0-.344.07-.517.104.242-.173.517-.31.793-.31zm-.62.551h-.38c-.068 0-.172 0-.206-.069.138 0 .24 0 .379-.034.31-.07.655-.173 1-.138.206 0 .413.069.516.241-.103-.034-.172-.103-.31-.103-.31-.035-.655.069-1 .103zm.482.448v-.31c.207-.035.414-.07.62 0a.55.55 0 0 1 .242.31h-.345c-.103.035-.207.069-.31.069s-.172 0-.207-.069zm.138.31c.035-.034.069-.069.138-.069.172-.069.345-.172.517-.137a.582.582 0 0 1-.172.068c-.173.035-.31.138-.483.138zm.758.207c-.069-.103-.206-.138-.31-.172.07-.035.207-.07.31-.035.07.035.104.138.138.242 0 .069.07.172.138.24-.138-.103-.207-.206-.276-.275zm-1.62.241a.49.49 0 0 1 .07.207c.034.104.103.173.137.31-.034 0-.103 0-.138-.034a1.943 1.943 0 0 1-.138-.414l.07-.069zm-.861.207c.103.07.172.138.31.173.103.069.241.069.31.137-.207 0-.414-.034-.586-.172a.616.616 0 0 1-.31-.345c.069.104.172.138.276.207zm-.414-.861c-.034 0-.103 0-.138-.07v-.206c.07.034.104.172.138.276zm-.93.068c-.173 0-.345 0-.449-.137-.069-.035-.069-.104-.103-.173.069 0 .103.07.172.138.07.069.173.069.276.104.241.034.482 0 .724.034.138 0 .276.103.344.207.07.103.173.207.207.344-.138-.034-.172-.172-.31-.24-.069-.07-.172-.173-.31-.208-.173-.069-.38-.069-.552-.069zm.896.897c-.173-.173-.173-.483-.414-.62-.069-.07-.207-.07-.31-.139h.138c.137 0 .31.07.413.173.173.172.207.482.414.655.207.172.448.275.724.31h.24a.808.808 0 0 1-.344.172c-.069 0-.138.035-.207.035a.313.313 0 0 0-.137-.276c-.138-.138-.38-.138-.517-.31zm-.518.586c.173 0 .345.069.518.137.206.07.448.138.689.07.172-.035.345-.07.517-.138.138-.035.31-.07.448-.07-.034.07-.103.07-.172.104-.173.069-.345.138-.517.138-.242.034-.517.069-.793 0-.172-.035-.38-.138-.586-.172-.138 0-.241 0-.38.034.07-.103.173-.103.276-.103zm.586.413c-.137-.034-.275-.172-.448-.172-.138 0-.275.069-.413.138-.104.069-.173.172-.242.241 0-.069.07-.172.104-.241.069-.138.207-.276.379-.276.31 0 .517.241.793.241.344.035.724 0 1.068-.069.31-.069.552-.206.793-.344.345-.242.758-.517 1.207-.62.137 0 .31-.07.413 0 .104.034.172.103.276.172a4.34 4.34 0 0 1-.345-.104c-.172 0-.344 0-.482.07a2.057 2.057 0 0 0-.517.31 2.213 2.213 0 0 1-.448.344 2.216 2.216 0 0 1-1.483.345c-.24.034-.482.034-.655-.035zm-.896 2v-.035c.104 0 .207-.035.31-.069-.034.103-.172.103-.31.103zm.965.206c-.137-.069-.31-.172-.31-.344 0-.138.035-.242.104-.31 0 .068 0 .172.034.24.069.138.103.276.172.414zm-.31-.827c-.138.138-.241.31-.413.414-.035.034-.104.034-.173 0a3.69 3.69 0 0 0 .483-.552c.138-.172.276-.345.448-.448a.582.582 0 0 1 .172-.069c-.172.241-.344.414-.517.655zm.07-.586a2.43 2.43 0 0 0-.242.31.99.99 0 0 1 .069-.31.802.802 0 0 1 .276-.414c.103-.069.24-.069.413-.034.07 0 .172 0 .241.069-.31.103-.586.207-.758.379zm7.272 3.964c-.034-.241-.138-.448-.207-.69-.069-.206-.207-.413-.345-.62a1.687 1.687 0 0 0-.413-.448 3.432 3.432 0 0 0-.38-.345 5.301 5.301 0 0 1-.447-.413l-.414-.517c-.138-.172-.31-.345-.414-.586l-.31-.517c-.207-.276-.448-.517-.793-.655-.137-.07-.31-.07-.482-.035-.38 0-.724.242-1.069.276-.138 0-.31.069-.448.103-.207 0-.413.07-.62 0-.138 0-.31 0-.448-.034.172-.069.344 0 .517 0 .413 0 .792-.069 1.206-.172.172-.035.345-.138.517-.207.241-.104.448-.241.724-.241.207 0 .414.034.586.103.172.069.345.207.414.38.206.413.413.826.62 1.205.207.345.517.586.862.793.413.31.861.62 1.137 1.069.104.172.173.379.207.586l.103.62c.07.241 0 .62 0 1.034.035.414.173.517.207.62.138.242.31.449.414.69a.941.941 0 0 1-.414-.31 1.061 1.061 0 0 1-.172-.414c-.07-.172-.07-.344-.07-.517-.034-.069-.034-.482-.068-.758zm-5.067-3.206c-.103.035-.172.035-.31.07-.138.068-.276.172-.448.172-.104 0-.207-.035-.31-.07-.138-.068-.242-.172-.242-.344.07.069.104.172.173.241.138.138.344.138.517.07.241-.07.448-.208.689-.311a.263.263 0 0 1-.069.172zm.035.31c.103-.172.24-.379.413-.517.138-.137.31-.275.483-.344.034.034.069.103.138.172-.104 0-.242.07-.345.138-.241.172-.414.414-.69.552zm.723-.413v-.035c.104 0 .242-.069.345.035a.584.584 0 0 1-.345 0zm0-1.103c-.137-.069-.24-.069-.379-.104v-.034c.173-.034.345-.034.517-.069.242 0 .483.069.655.207.104.069.173.172.241.31a.313.313 0 0 1-.344 0c-.241-.034-.448-.207-.69-.31zm.483.551c.138.035.276.138.414.138h.275a.65.65 0 0 1 .07.276.991.991 0 0 1-.621-.241c-.035-.035-.138-.104-.138-.173zm.586.862c-.138-.069-.276-.138-.345-.241a.49.49 0 0 1-.069-.207c.138.069.242.172.414.241.103.035.241 0 .345 0 0 .035.069.07.069.138a.639.639 0 0 1-.07.241c-.137-.034-.24-.137-.344-.172zm-.103 2.654c0-.103.068-.241.137-.31 0-.034.07-.069.104-.069 0 .069.034 1.069.172 1.379-.069 0-.103.034-.172.069a5.317 5.317 0 0 1-.173-.586c-.103-.207-.068-.38-.068-.483zm-.138 1.827s.24-.276.275-.31c.173-.138.345-.276.586-.241.138 0 .242 0 .345.068-.138 0-.241.07-.345.104-.31.069-.517.31-.689.551a1.073 1.073 0 0 0-.138.207c-.207.31-.413.62-.69.862h-.034c.173-.31.31-.62.517-.93.035-.139.07-.242.173-.311m-.965 1.034c.068-.172.137-.345.24-.448.07-.069.104-.138.139-.172 0-.035.069-.035.103-.035-.034.104-.138.207-.172.345-.07.172-.173.345-.276.517-.069.103-.172.172-.276.276 0 0 0-.035-.034-.035.138-.207.207-.31.276-.448zM9.67 40.431c-.07.069-.104.138-.173.241a.26.26 0 0 1 .07-.172c.103-.138.171-.31.344-.345-.104.07-.207.173-.241.276zm.723 0c-.034.034-.069.138-.137.138-.104 0-.242 0-.345-.07.069-.103.138-.24.241-.31.104-.103.276-.137.448-.103a3.031 3.031 0 0 1-.207.345zm1.31-.103c-.241 0-.482 0-.69.034-.172.034-.31.172-.413.31a.753.753 0 0 1-.172.104.605.605 0 0 1 .138-.173c.138-.138.172-.31.31-.448.138-.103.31-.138.448-.172.103 0 .207 0 .31.034.138.07.276.07.414.173-.07.069-.207.103-.345.138zm.035.723v-.034c.069-.103.172-.207.24-.31.07-.07.104-.138.173-.173.07-.034.138-.034.173-.034-.035.138-.138.207-.207.345-.035.103-.207.206-.38.206zm.758-.31c0 .07 0 .173-.069.241-.069.104-.172.104-.31.07.034-.138.103-.242.172-.345s.173-.207.31-.31c.173-.07.345-.07.517-.138.138-.035.242-.173.345-.207a.372.372 0 0 1-.103.241c-.138.138-.345.138-.517.138a.588.588 0 0 0-.345.31zm2-.862c0 .173 0 .345-.07.483-.069.172-.172.276-.344.38-.035 0 0-.035 0-.07.103-.138.172-.344.24-.517.035-.172.07-.379.139-.551 0-.035.034-.035.069-.07-.035.104-.035.242-.035.345zm.344.242c0 .103-.07.172-.172.241v-.138c.034-.207.034-.413.034-.62a.38.38 0 0 1 .207-.345c0 .138-.07.241-.07.38 0 .172.035.31 0 .482zm.172-1.276c-.172.173-.413.173-.586.31a.918.918 0 0 0-.207.345c-.103.242-.069.517-.172.793-.069.172-.172.345-.345.414-.069.034-.172 0-.24 0a.639.639 0 0 1-.242-.07c.138-.034.241 0 .345-.103a.64.64 0 0 0 .24-.413c.104-.31.07-.655.208-.93.069-.173.275-.242.448-.311.172-.07.379-.138.517-.276.138-.103.275-.345.275-.345s-.034.449-.24.586zm.448 1.345c-.138-.07-.207-.276-.241-.414-.034-.276 0-.517.034-.793 0-.069.07-.241.104-.31 0 .276-.07.62.069.896.069.138.172.276.31.38a.904.904 0 0 0 .31.172.895.895 0 0 1-.586.069zm.828.31h-.31c.24-.172.516-.31.792-.172-.138.068-.31.103-.482.172zm1.688.414c-.068-.07-.137-.207-.206-.276-.104-.07-.207-.173-.31-.276a1.077 1.077 0 0 0-.38-.31c-.103-.07-.207-.07-.31-.138a.695.695 0 0 1 .586-.069c.138.069.207.172.31.31.035.104.104.173.173.31.034.07.069.173.137.242.07.069.173.103.242.207-.104.068-.207.068-.242 0zm1.38-.586c-.173 0-.345 0-.552.068-.138 0-.276.035-.414 0v-.034c.138 0 .276 0 .414-.069.172-.069.344-.138.551-.138.138 0 .31.104.414.173-.138.068-.31 0-.414 0zm1.137.103c.138 0 .241-.035.379-.035.034 0 .069 0 .103.035-.138.138-.344.172-.517.172-.138 0-.31-.069-.448-.138.138-.034.31 0 .483-.034zm-.552-.827c.173.069.31.172.38.344v.104a2.977 2.977 0 0 1-.483-.448h.103zm-.862-.104c.104 0 .207 0 .31.035a.814.814 0 0 1 .31.276c.104.103.208.206.311.344-.276-.069-.482-.31-.758-.31-.241.034-.414.138-.62.207-.173.034-.31.034-.483 0-.035 0-.07 0-.104-.07a.55.55 0 0 0-.103-.275c-.034-.069-.103-.172-.138-.241.104.034.207.138.345.172a.84.84 0 0 0 .413 0c.138 0 .31-.103.517-.138zm-1.826-1.792c-.104-.069-.173-.138-.242-.172a.49.49 0 0 1 .207.069c.138.034.38.103.517.172.138.069.276.172.345.31s.207.345.241.517c.035.172.035.345.173.552l.24.24c-.137.035-.31-.034-.413-.137-.172-.172-.276-.414-.413-.69l-.138-.24c-.104-.138-.173-.276-.31-.38.034-.034-.173-.241-.207-.241zm.723-.103a.49.49 0 0 1-.206-.07c-.242-.103-.448-.068-.759-.275 0 0-.24-.138-.31-.414.138.035.31.173.517.207.173.035.38.069.517.172s.207.242.241.38zm-.344-.655c-.241-.035-.517-.07-.724-.138 0 0-.241-.104-.241-.138-.035-.07-.035-.172-.035-.276.104.035.345.172.483.241.069 0 .241.07.344.138a.415.415 0 0 1 .173.173zm-4.447-1.241c-.034.069-.138.138-.172.172-.103.138-.138.241-.207.414-.034.069-.069.172-.103.241-.104.172-.207.345-.173.517v.62c0 .173-.068.38-.24.518l-.173.137c-.07.104-.173.173-.207.276-.103.172-.172.38-.31.517-.207.276-.552.448-.862.517-.241.07-.517.07-.793.173-.138.034-.207.137-.275.24a1.446 1.446 0 0 1-.31.483c-.139.138-.345.035-.449.207.104 0 .173-.034.276-.034h.345c.138-.035.241-.173.379-.138.172.069.31.172.517.241.069.035.172 0 .241-.069.104-.069.241-.172.38-.207h.724a.261.261 0 0 1-.07.138c-.069 0-.172 0-.241.07-.035.034-.138.068-.138.172.035.068.138.068.207.068.103 0 .207.07.31.07s.172-.07.31-.104c.138 0 .242.103.414.034.103-.068.172-.206.31-.24.172-.035.31.034.448.068.173 0 .38.035.586 0 .173-.034.31-.069.483-.103.172-.07.344-.138.517-.173.138 0 .241-.069.379-.034.207 0 .448.069.655.069.241 0 .448 0 .69-.035.344-.034.689 0 .964.138.138.07.207.173.345.276.103.034.207 0 .345 0 .069 0 .172 0 .172-.069.035-.103 0-.241-.069-.345.172-.034.38 0 .586 0 .345-.069.758-.069 1.069.035.24.069.517.138.758.069.138-.035.241-.138.345-.173.103.138.206.276.344.345.138.07.31.104.414 0 0-.103-.069-.172-.138-.276-.034-.069-.069-.172-.138-.24-.069-.104-.207-.104-.345-.104-.068-.035-.103-.138-.172-.173-.138-.034-.276 0-.413-.034-.138-.138-.173-.345-.276-.483-.138-.172-.345-.241-.517-.31a2.064 2.064 0 0 0-.414-.069 1.13 1.13 0 0 1-.62-.172c-.173-.104-.207-.793-.448-1.138-.138-.172-.104-.413-.207-.62-.035-.069-.276-.552-.38-.655-.137-.103-.413-.276-.55-.483-.173-.24-.104-.551-.208-.861a.364.364 0 0 0-.069-.173c-.069-.137.035-.24.104-.344.138-.173.138-.448.276-.62.137-.173.31-.31.482-.38.172-.069.345-.034.517-.069.138-.034.31-.069.448 0 .07 0 .173.07.207.138s0 .172 0 .241c-.034.173-.207.242-.31.345-.104.069-.207.069-.31.138-.07.034 0 .138.069.138.172 0 .344-.138.517-.242-.035.07-.07.138-.138.242 0 .069 0 .172.034.241h.07c.068-.069 0-.172 0-.31 0-.07.102-.138.137-.207 0-.069.034-.172.069-.241.138-.242.034-.552-.138-.759a.437.437 0 0 0-.31-.137c.034-.138.103-.242.138-.345a.805.805 0 0 1 .344-.414c.138-.069.31-.069.483-.069.069 0 .172.07.207.138a.844.844 0 0 1 .138.414c.034.31-.138.586-.07.896 0 .138.139.276.242.345s.276.069.38.138c.068.068.171.103.31.103.206 0 .344-.138.55-.241.173-.07.38-.138.587-.138.138 0 .207.138.241.241 0 .138-.172.31-.069.345.172.069.172-.31.138-.448.069 0 .172 0 .207-.035.069-.069.241-.172.207-.241h-.104c-.069 0-.138.138-.207.138-.137 0-.24-.104-.344-.138-.104-.069-.242-.069-.38-.103.07-.138.173-.276.242-.414.138-.172.31-.345.517-.414.103 0 .207.035.276.104.069.103.069.241.206.31h.138c0-.069-.103-.069-.138-.104-.069-.068-.069-.206-.103-.31.103-.034.414-.138.31-.241-.069-.069-.138.069-.241.138-.172.069-.38-.035-.552 0a1.464 1.464 0 0 0-.585.345l-.518.413c-.103.07-.275.104-.344 0-.07-.069-.104-.207-.138-.345 0-.137.069-.275.069-.413 0-.172-.035-.345.069-.483.069-.172.276-.172.448-.206.241-.035.517-.173.793-.07.069.035.103.104.172.173.069.069.138.069.241.138v.103h.104v-.138s.069-.034.069-.103v-.069c-.07 0-.104.069-.138.138-.104 0-.138-.138-.207-.172-.103-.104-.241-.173-.38-.276l.414-.414c.07-.103.138-.241.276-.31s.31-.069.448-.172c.07-.07.276-.173.173-.242-.07-.069-.207.138-.345.173-.104.034-.241.034-.345.138-.138.068-.207.206-.31.31-.172.138-.31.241-.517.31-.138.069-.276.138-.414.138v-.38c0-.068 0-.172.07-.24.137 0 .275.068.413.137.069.035.138 0 .172-.034.035-.035 0-.07 0-.138-.069 0-.103.138-.207.103-.137-.069-.24-.103-.379-.172.035-.069.104-.103.138-.172 0-.07-.069-.035-.138-.035v.138c-.069.069-.207.103-.275.207-.07.138-.07.345-.207.482.069.104 0 .104-.07.104-.206-.07-.378-.173-.585-.276a.887.887 0 0 0-.517-.034c-.138 0-.276-.07-.414-.07a1.416 1.416 0 0 0-.758 0c-.138.035-.207.104-.345.173a.391.391 0 0 0-.103-.276c-.035-.069-.104-.103-.07-.172 0-.103 0-.207.104-.31.035-.035.138-.035.173 0 .034.034.069.138.137.172 0-.103 0-.172-.068-.276a.161.161 0 0 0-.276 0c-.07.104-.104.242-.138.345-.138-.034-.276-.138-.414-.034-.172.103-.172.379-.034.517.103.103.276-.104.172-.207-.069 0-.172 0-.172-.104.034 0 .069-.069.138-.069.103 0 .241 0 .31.104v.344c-.069.276-.207.586-.517.69a.69.69 0 0 1-.448.069c-.138 0-.207-.173-.242-.276-.034-.276 0-.551.138-.793a.814.814 0 0 1 .276-.31c.276-.207.552-.38.862-.483.069-.034.172 0 .276.035.137.138.24.31.344.414.07.069.173.069.31.137.07.035.138.138.242.138s.207 0 .276-.069c.068-.069.103-.172.206-.24.07-.035.173.034.138.103 0 .034-.138.068-.103.103 0 .069.172 0 .172-.035.035-.103-.069-.206-.172-.24a.639.639 0 0 0-.241.068c-.035-.103-.138-.345-.207-.241-.035.069.069.138.069.207 0 .138-.207.206-.345.138-.069-.07-.138-.173-.172-.31s-.104-.242-.138-.345c.241-.07.482-.104.724-.104.24 0 .413.138.62.207.172.069.345.034.517.103.172.07.345.173.517.276.138.07.276.07.414.07a.494.494 0 0 0 .344-.139c.104-.103.138-.276.276-.379.138-.069.276 0 .38-.103-.139 0-.242 0-.38.034-.138.07-.172.241-.276.345-.034.069-.103.069-.172.103.069-.069.172-.172.207-.31.034-.103 0-.241 0-.345a.49.49 0 0 0 .207-.069c.034 0 0-.069 0-.137a.212.212 0 0 0-.242.034c-.103.138 0 .31-.069.483-.034.068-.103.206-.206.206a.527.527 0 0 1-.345-.138c-.172-.137-.345-.206-.552-.31-.137-.069-.275-.069-.379-.172a.263.263 0 0 1 .173-.069c.138-.034.275-.138.413-.138.31-.034.586-.138.828-.345.172-.137.31-.379.551-.482.138-.07.276-.07.414-.07.172 0 .344 0 .482.07.104.069.104.207.104.31 0 .069 0 .138.034.172.035-.137 0-.275 0-.413 0-.104-.103-.173-.172-.241.138-.035.31 0 .413-.104.035 0 .07-.069.07-.103-.139 0-.276.069-.414.069-.31 0-.586-.138-.931-.104-.172 0-.31.07-.448.104 0-.104.069-.173.069-.276.034-.172.034-.345.034-.517 0-.07 0-.172.035-.241.069-.138.241-.173.379-.173s.276 0 .345.07c.103.103.069.31.172.413 0 0 .069 0 .103.034-.034-.103-.103-.172-.103-.31 0-.069-.069-.138-.103-.207.103-.034.24-.138.275-.241-.138 0-.275.138-.413.138-.173 0-.345-.104-.517-.07-.138.07-.173.242-.276.346-.138.172-.172.379-.207.586 0 .068-.034.137-.069.206s-.138.104-.172.138c-.104.035-.241.035-.345.07-.103 0-.207 0-.31.034a.721.721 0 0 1 .138-.207c.069-.138.103-.31.138-.483 0-.138.069-.275.138-.413.068-.104.103-.207.206-.31.138-.138.31-.207.483-.31a.618.618 0 0 1 .241-.173c.138 0 .31.069.448.034.07 0 .207-.069.173-.138-.07-.068-.173.07-.242.07-.103 0-.24 0-.344-.035.034-.103.138-.172.138-.31s.068-.31-.07-.345l-.068.069c-.07.103.103.207.034.345a.536.536 0 0 1-.207.275c-.172.07-.344.07-.517.104-.103 0-.172.069-.275.138v-.276c0-.172-.104-.345-.104-.517 0-.069.07-.172.172-.241.104-.035.207 0 .31 0 .07 0 .242-.07.173-.138-.069-.07-.172.069-.31.069h-.241c-.07 0-.173.069-.207.172a.263.263 0 0 1-.07.172c-.103-.069-.103-.206-.103-.31 0-.138.31-.241.173-.345-.138-.137-.31.276-.276.449 0 .137.069.24.138.413.034.173.034.38 0 .552-.07.138-.172.206-.276.344-.069.07-.069.173-.103.31 0 .104-.138.173-.173.242-.103.172-.172.345-.275.482a2.882 2.882 0 0 1-.793.62l-.207.104c.034-.241 0-.482 0-.758 0-.069 0-.138.034-.241 0-.035.07-.07.138-.07.104.07.138.242.276.242.172.034.31-.138.31-.31 0-.104-.138-.173-.206-.07.034.07.103.104.068.173 0 .104-.172.104-.24 0-.07-.069-.104-.207-.208-.241-.103 0-.138.069-.206.138h-.173c-.069 0-.069.069-.103.138h.069c.069 0 .138.069.138.172 0 .138-.07.241-.138.345-.07.172-.207.379-.414.482a1.033 1.033 0 0 1-.62.207c-.242 0-.448.103-.69.103 0-.068 0-.172.035-.24.069-.139.241-.242.379-.277.103 0 .207-.068.345-.068.103 0 .172.103.275.103.07 0 .138 0 .173-.069.034-.069.034-.103 0-.138-.07-.069-.138.069-.207.104-.069 0-.104-.035-.172-.07.103-.034.206-.068.31-.137s.138-.276 0-.345c-.035-.034-.138 0-.138.069s.034.172 0 .276c-.069.103-.276.069-.414.034a.639.639 0 0 0-.241-.069c.138-.138.276-.276.448-.413.138-.07.241-.173.414-.173a2.213 2.213 0 0 0 1.034-.482c.138-.104.241-.242.344-.345a.453.453 0 0 0 .104-.138c.138-.172.241-.413.379-.586l.207-.207c.069-.103.138-.24.138-.344v-.242c.069-.103.172-.172.241-.24.138-.07.241-.173.38-.242.103-.035.24-.035.344-.104a.438.438 0 0 0 .241-.31c0-.069.069-.138.138-.138.069.035.069.138.172.173h.138c-.034-.07-.138-.07-.138-.173a.415.415 0 0 0-.172-.172c.034-.138.069-.31 0-.448 0-.069-.034-.138 0-.207.069.138.069.069.172.035-.103-.035-.172.068-.206.137-.07.173.068.345 0 .517-.035.138-.173.242-.31.345-.07.07-.173.07-.242.07h-.414a1.73 1.73 0 0 0-.069-.415c0-.103.138-.344.207-.24.035.034-.034.137 0 .172 0 .034.104 0 .138 0 .035-.07 0-.138-.069-.173-.069-.069-.172-.069-.276-.069v-.241c0-.069 0-.172-.103-.207-.069 0-.138.07-.172.035-.07-.07.103-.173.034-.242-.103-.069-.207.276-.069.31.07 0 .138 0 .207-.034.069.103.035.241 0 .345-.069.138-.138.241-.172.379s-.035.31-.07.448c0 .103-.137.172-.206.276-.069.138-.138.276-.241.413-.104-.103-.104-.24-.173-.344a1.687 1.687 0 0 0-.413-.448 1.078 1.078 0 0 1-.173-.345.306.306 0 0 1 .207-.345c.07.138.173.31.31.345.104.034.31-.035.276-.172 0-.104-.069-.138-.069-.104-.069 0 0 .138-.069.173-.172.068-.275-.173-.31-.31.103-.07.207-.104.276-.208.034-.068.034-.137.034-.206s.035-.173 0-.173c-.103 0 0 .207-.069.31 0 .07-.103.104-.172.138-.103.035-.207 0-.31 0-.104.07-.138.173-.173.31-.069.31.07.621.207.931.104.173.207.38.207.586 0 .242-.103.483-.241.69-.07.138-.242.275-.345.413a1.97 1.97 0 0 1-.965.38c.069-.207.138-.449.172-.69l.104-.414c.069-.103.172-.206.344-.172 0 .069.035.207.138.276.035.034.138.034.173 0 .034-.035.069-.07.069-.138h-.035c-.034 0-.069.034-.138.034-.103-.034-.138-.206-.241-.24-.172-.035-.414.068-.483.24-.172.276-.24.62-.482.862-.104-.241-.138-.413-.104-.551.035-.104.173-.138.207-.242 0-.138-.276-.172-.31 0h.207c-.07.138-.207.173-.276.31-.069.173-.069.345-.103.518 0 .103-.138.206-.242.172v-.38c0-.172.07-.344.138-.482.242-.413.69-.758 1.172-.861h.414c.138 0 .207-.138.31-.207.034 0 .069.034.069.069 0 .069-.103.172-.035.24 0 0 .104 0 .138-.034.035-.068.07-.172.035-.24-.035-.07-.138-.104-.173-.173-.068-.104-.137-.276-.275-.276-.035 0-.035.069 0 .138.034.034.138.069.069.172 0 .07-.07.138-.173.138-.24 0-.517-.034-.758-.069.034-.103.103-.207.138-.31.034-.138.138-.241.172-.38.07-.24.173-.482.173-.757 0-.138 0-.276.034-.414.035-.103.103-.207.138-.345 0-.103.034-.241.172-.275.138-.035.31-.07.345-.207-.069.034-.103.069-.172.103-.07.035-.173.035-.242.069-.069.035-.138.069-.172.035-.069-.07-.103-.138-.172-.173 0 .138.172.207.172.345 0 .103-.069.172-.103.241-.104.104-.138.276-.173.414a.372.372 0 0 1-.103.241c-.07-.138-.138-.241-.207-.38-.103-.171-.345-.24-.483-.413-.068-.069-.172-.172-.137-.276 0-.103.206-.31.069-.31s-.138.242-.207.38c-.207-.173-.345-.449-.31-.69 0-.138.31-.276.172-.345-.07-.069-.138.138-.207.207a.576.576 0 0 0-.034.414c.068.276.275.448.448.62.138.138.24.31.344.448a.75.75 0 0 1 .173.276.576.576 0 0 1 .034.414c0 .172-.138.379-.31.482-.069-.138-.103-.275-.138-.413l-.103-.414c0-.034 0-.069.034-.069.035 0 .138-.069.172 0 0 .069-.068.172 0 .207.138.103.07-.345-.068-.345-.07 0-.207 0-.242.07 0 .034.07.068.07.137s0 .172-.035.241h-.035a.491.491 0 0 1-.207-.413c.138-.07.242-.173.242-.276 0-.069-.07-.172-.138-.207-.07-.069-.241-.034-.345-.069-.034-.034 0-.138-.069-.138h-.069c0 .035 0 .104.035.138a.437.437 0 0 0 .207.035c0 .069-.07.172 0 .24h.068c.07-.034.07-.137.138-.171 0 .034.07.069.07.103 0 .138-.07.276-.035.414 0 .24.172.413.276.62.069.138.172.31.137.517 0 .103-.137.172-.24.241-.311.173-.621.31-.794.586-.069.07-.103.207-.172.31a.753.753 0 0 1-.103-.172c-.07-.138-.035-.31 0-.448.034-.207.172-.379.275-.586.07-.138.207-.31.242-.482 0-.138-.104-.207-.173-.31-.034-.07-.069-.139-.138-.173.07-.138.31-.069.242-.207 0-.034-.104-.069-.138 0a1.073 1.073 0 0 0-.138.207l-.069-.069c-.034-.034-.103-.103-.172-.103-.07 0-.138.034-.138.069 0 .034.034.069.069.069.069 0 .103-.035.172 0 .138.034.172.24.276.379a.366.366 0 0 1 .034.275c-.103.173-.24.276-.379.414a1.886 1.886 0 0 0-.207.276c-.103-.138-.138-.31-.172-.448-.034-.242-.138-.448-.138-.724v-.69c0-.137.07-.275.138-.413.069-.138.241-.172.31-.276.07-.103.104-.241.173-.345.069-.137.24-.172.344-.24a.212.212 0 0 0 .035-.242c-.035-.069-.138-.069-.173-.138-.034-.069 0-.138-.034-.172-.035 0 0 .069 0 .103 0 .104.103.172.172.241-.069.138-.241.173-.344.276-.07.035-.138.138-.173.241-.034 0-.069-.069-.138-.069 0 .104 0 .242-.069.31s-.172.139-.24.242c-.07.103-.173.207-.242.31a2.02 2.02 0 0 0-.172.414l-.242-.241c-.138-.104-.241-.242-.344-.345-.138-.104-.173-.172-.173-.241.035-.104.07-.242.104-.345a.453.453 0 0 0-.104-.414c-.034-.034-.103-.103-.069-.172 0-.138.242-.276.138-.345-.138-.069-.207.242-.172.414 0 .069.138.172.069.241-.104-.069-.276-.31-.38-.172v.069c.035.069.173 0 .242.069.069.034.172.069.207.138.034.103 0 .206-.035.31-.069.172-.103.344-.034.517.069.207.172.379.344.551.104.104.242.173.31.345v.551c0 .173.104.345.173.552.069.172.172.31.31.448l.414.414a.786.786 0 0 1 .207.413c-.07 0-.104-.069-.138-.103-.173-.172-.345-.414-.517-.586-.242-.31-.345-.758-.62-1.034-.139-.138-.31-.31-.518-.414-.103-.034-.138-.172-.241-.241a1.047 1.047 0 0 0-.241-.172.978.978 0 0 1-.345-.31.33.33 0 0 1-.069-.31c0-.104.104-.173.138-.242v-.207s-.034 0-.034.035v.137c0 .138-.173.242-.173.38 0 .172.138.344.138.551-.138-.034-.241-.138-.38-.138-.171 0-.31.138-.447.173v-.138c-.07.034-.104.103-.07.172.07 0 .139.034.208 0 .103-.034.172-.138.31-.138.172.035.345.207.482.345.138.138.31.241.483.345.241.172.483.379.586.689-.138 0-.241-.069-.38-.069h-.413c-.034 0-.069 0-.103-.069 0-.069.103-.138.069-.172-.07 0-.138.103-.138.138v.172a.261.261 0 0 0-.138.069c-.034.069-.069.172 0 .207h.034c.07-.035 0-.173.104-.207h.207c.172.034.344.069.517.138.138.069.275.172.413.241.173.138.414.31.517.517.104.172.104.38.138.586 0 .207-.034.414-.069.62-.034.242-.103.517-.138.759-.034.31-.034.62-.172.93a.807.807 0 0 1-.414.414.263.263 0 0 0-.068-.172c-.035-.207-.07-.414-.138-.655-.035-.31 0-.586.034-.896.035-.207.241-.31.345-.483.069-.172.138-.345.276-.448.068 0 .137.103.206.069.035-.035.07-.07.035-.138-.035-.069-.138-.069-.207-.069 0-.172.138-.345.034-.551-.034-.138-.206-.173-.344-.138-.035 0-.035.069-.035.138.035.034.07 0 .138.034 0 .034.07.069.035.138-.07.172-.173.31-.345.38-.034-.208 0-.415-.138-.587-.103-.138-.241-.207-.414-.31.035-.035.138-.07.138-.138s-.103-.069-.172-.034c-.069 0-.069.103-.103.137-.035 0-.07 0-.104-.034v-.103s-.069 0-.103.034c-.07.138.207.172.344.241.173.104.276.31.242.517 0 .242-.138.448-.242.655-.068-.069-.103-.172-.137-.241-.07-.103-.173-.172-.242-.276-.138-.241-.344-.517-.379-.793-.034-.24-.034-.482.07-.689a1.5 1.5 0 0 1 .206-.241c.034-.07.103-.173.034-.173s-.069.104-.137.173c-.035-.035-.035-.104-.104-.138-.069-.035-.172-.138-.207-.07s.173.07.207.173c.035.173-.138.31-.241.414-.104.138-.138.276-.173.414-.103-.104-.172-.242-.275-.38-.242-.413-.414-.93-.345-1.447 0-.173.103-.345.138-.517 0-.207-.207-.38-.207-.586.035-.138.345-.173.241-.276-.069-.069-.206.103-.275.207-.035.034 0 .138 0 .172a.263.263 0 0 1-.173-.069c-.069-.069-.069-.172-.138-.241h-.034c-.069.034 0 .172.069.241.069.104.241.138.345.241.069.138 0 .31 0 .449-.07.379-.207.758-.207 1.137v.241a2.154 2.154 0 0 1-.759-.344c-.137-.138-.068-.414 0-.552.035 0 .104.069.138.069.07-.034 0-.172-.069-.207-.069 0-.103.07-.137.138-.035.138-.138.276-.104.414.069.31.345.482.586.655.207.137.414.275.517.517.069.24.069.482.172.723v.138c-.172-.103-.24-.31-.379-.413a.822.822 0 0 0-.379-.207c-.172-.069-.379-.103-.551-.172-.104-.035-.173-.138-.276-.242a.904.904 0 0 1-.172-.31 4.055 4.055 0 0 0-.242-.69c-.069-.206-.31-.344-.241-.482 0-.138.241-.276.138-.345h-.035c-.137.07-.206.207-.24.38-.104 0-.311-.138-.346-.035-.069.104.207.07.31.138.07.034.07.138.139.207.034.138.103.241.137.379v.586c-.103 0-.206-.069-.344-.069a4.16 4.16 0 0 1-.655-.069c-.138-.034-.207-.345-.31-.241-.035.034 0 .103 0 .138v.172c0 .069.034.103.034.172 0 .035-.138.07-.103.104 0 .034.103 0 .138-.035.068-.069-.07-.172 0-.241.034-.034.103 0 .172 0 .241.103.448 0 .69.069.24.103.447.31.654.517.172.172.414.345.586.517a.556.556 0 0 1 .138.241 1.173 1.173 0 0 1-.69 0c-.172-.069-.379-.138-.482-.31-.069-.138-.034-.31-.034-.448 0-.069-.035-.138-.07-.241 0-.035.035-.138 0-.173-.034 0-.137.035-.137.07 0 .068.138.103.138.172 0 .138-.07.275-.138.413-.07-.034-.173-.069-.242-.103-.068 0-.172-.035-.24 0-.035.034-.035.138 0 .172.068.035.068-.103.137-.138.069-.034.138.035.172.07.104.103.207.24.345.344a.75.75 0 0 0 .276.172c-.138.035-.31.07-.448.07-.31.068-.62 0-.93-.173-.139-.069-.104-.241-.242-.31-.07 0-.207 0-.173.069 0 .069.173.069.242.137a.914.914 0 0 0 .207.173c.137.069.31.103.413.207a3.52 3.52 0 0 1-.379.206c-.103.035-.207.07-.31 0-.07-.068-.07-.172-.173-.24 0 0-.068-.035-.103 0-.069.068.241.137.172.24 0 .035-.103 0-.172.035-.034 0-.069.069-.034.138s.172 0 .24-.035c.104 0 .242.035.346 0 .103 0 .172-.069.24-.138.104-.068.242-.103.38-.137.207-.035.414-.035.62-.035s.414.069.62.104c.415 0 .794.034 1.207.172v.138c-.069.069-.172.069-.275.138-.138.069-.138.275-.07.413s.207.242.173.414c0 .138-.069.31-.103.448-.207-.103-.31-.31-.414-.517-.069-.138-.138-.31-.207-.448-.034-.104-.172-.138-.241-.241 0-.104.069-.242 0-.31-.07-.035-.138.068-.173.103a.713.713 0 0 0-.172-.138c-.069-.035-.138 0-.172.034-.035.035-.07.138-.035.173.07.069.207-.035.31 0 .07.034.07.103.104.138.069.137.241.172.276.344 0 .138.034.276.034.414-.069-.07-.138-.207-.207-.276a1.238 1.238 0 0 0-.344-.241.955.955 0 0 0-.62 0c-.173.034-.345-.035-.483-.07 0-.103.069-.171.103-.24v-.07c-.069 0-.138 0-.172.07v.275c.207.07.413.104.62.173.138.069.31 0 .483.103a.614.614 0 0 1 .275.241c.138.173.173.414.242.62-.138 0-.276-.068-.414-.137-.103-.069-.345-.069-.31-.172 0-.035.103 0 .138-.07v-.034a.105.105 0 0 0-.138 0c-.035.035-.069.07-.069.138 0 .035.034.069.069.103-.035.035-.103.104-.069.173 0 .103.172.345.207.241 0-.034-.07-.069-.104-.138-.069-.069.035-.172.138-.138.104.035.173.138.276.242a.75.75 0 0 0 .276.172c-.138.103-.276.207-.414.276-.138.034-.276.103-.413 0-.242.069-.31-.104-.38-.242-.069-.137-.172-.24-.24-.344-.104-.138-.173-.31-.311-.414a1.298 1.298 0 0 0-.517-.31c-.104-.035-.241 0-.345-.035-.138 0-.413-.172-.31-.31 0-.034.103.035.138 0 0 0 0-.069-.035-.069h-.069c-.034 0-.034.07-.069.138-.068 0-.24 0-.24.07 0 .034.103 0 .172 0 .137 0 .172.171.31.24s.275.07.413.104c.173.034.345.172.448.344-.103 0-.206-.068-.31-.068-.138 0-.31 0-.413.137-.07.07-.104.173-.173.242h-.138c-.069-.07 0-.207-.034-.31-.035-.07-.172-.07-.172 0 0 .034.069.068.069.137v.207c.034.104.172.173.275.207a.105.105 0 0 1-.138 0c-.069-.069-.137-.207-.206-.172v.034c0 .104.172.172.275.207h.207c.035.069.07.207.207.207.069 0 .138-.035.103-.104s-.206-.069-.24-.172c-.035-.069 0-.138.068-.172.069-.104.276-.138.414-.07a.978.978 0 0 1 .344.31c.173.208.345.449.586.621.242.138.517.242.793.242.207 0 .414-.035.586-.035 0 .138-.069.276 0 .38.035.034.103.068.103.137-.068.07-.172.07-.31.07a.19.19 0 0 1-.172-.104c0-.07 0-.138.034-.173-.069-.034-.172 0-.138.104a.336.336 0 0 0 .345.276c.104 0 .207-.035.31-.035.138 0 .31 0 .448.069.173.103.276.31.414.448-.138.035-.31.069-.448.138-.241.069-.448.172-.69.241-.068 0-.137-.069-.172-.103-.172-.172-.241-.448-.379-.655-.069-.103-.207-.172-.31-.276a.476.476 0 0 0 .103-.138c0-.034-.069-.069-.138-.034-.068.034-.034.103-.034.172-.034 0-.069-.034-.138-.069v-.172c-.034 0-.138.034-.103.103.069.173.275.173.413.345.07.103.07.241.138.345 0 .138.07.275.07.413-.104 0-.173-.034-.311-.069a1.312 1.312 0 0 1-.448-.31 1.377 1.377 0 0 1-.241-.379c-.138-.172-.173-.414-.31-.586-.07-.103-.173-.172-.207-.31 0-.07.068-.138.103-.173.034 0 .069.035.138.035v-.07c-.07-.069-.173-.034-.276-.103-.034-.035-.069-.138-.103-.173H8.98c0 .07.035.138.07.207.068.069 0 .138 0 .241-.035.173.068.345.034.517h-.517c-.138 0-.31 0-.449-.069a.766.766 0 0 1-.275-.448c0-.069.138-.206.069-.275-.035-.035-.104 0-.138.034 0 .069 0 .138-.035.172-.138-.034-.31-.034-.413.035v.034c.069.07.172 0 .275 0 .035 0 .104 0 .138.035.07.241 0 .482.138.62.173.138.414.138.586.242-.069.034-.138.068-.207.137a.764.764 0 0 0-.172.138c-.069.07-.241 0-.31.104v.069c.069.069.172.034.276 0a1.97 1.97 0 0 1 .275-.242c.07-.034.173-.103.276-.069.138 0 .31.104.345.242.069.172.138.379.275.517.104.138.31.138.414.275.035.035.035.138.035.173-.207.034-.414-.035-.586-.138-.138-.069-.31-.069-.483-.035-.138.035-.31.138-.345.276-.069.138-.069.31-.138.448a.29.29 0 0 1-.24.138c-.139-.034-.139-.241-.208-.345h-.034c-.104.07.034.242.069.345-.138 0-.276-.103-.345-.241-.069-.104.07-.31-.034-.345h-.07c-.068.07 0 .241 0 .345.035.138.139.207.242.31a.904.904 0 0 0 .517.07c.207-.07.345-.242.517-.346.103-.069.241-.138.414-.069.138.035.241.104.379.173-.07.069-.172.103-.276.172-.103.104-.172.276-.241.414-.07.241-.07.482-.173.724-.068.137-.172.24-.344.24-.104 0-.173-.103-.241-.171-.07-.104-.173-.173-.31-.242-.035-.034 0-.103-.035-.138-.035-.034-.138.104-.104.138.035.07.138.104.207.138.138.07.207.207.276.345-.034.034-.103.069-.103.138s.137.034.206.034c.104 0 .173.138.31.138.173 0 .31-.172.449-.31.034.103.034.241.138.31.069.069.172.103.24.172 0 .104-.206.173-.137.276.034.035.103 0 .138-.034s.069-.104.103-.173c.07.035.138.138.207.07l.035-.035c.034-.035-.138-.035-.173-.104-.138-.24-.241-.586-.172-.861.034-.173.172-.31.31-.448.172-.138.345-.242.517-.345.138-.07.241-.07.38-.07.172 0 .31-.068.482-.102.138-.035.31 0 .448 0s.241.034.345.068c.069 0 .137.104.137.207 0 .173-.137.276-.24.414-.07.069-.173.172-.311.207-.276.069-.483.275-.758.344h-.31c-.138-.034-.207-.172-.173-.31.035-.069.104-.069.138-.138v-.138c.034-.034.138 0 .172-.069.035-.034 0-.103 0-.137a.263.263 0 0 0-.172.069c-.069.103-.345 0-.31.137 0 .07.138.035.138.104 0 .069-.035.103-.104.172v.173c0 .137.138.24.242.31.137.103.31.103.448.069.172 0 .344-.173.517-.173 0 .104-.035.207 0 .31 0 .173.172.242.206.414 0 .138.07.276.07.414 0 .069-.173.138-.104.207.069.103.172-.138.207-.242 0-.103-.104-.241-.035-.31.07-.069.173 0 .242-.069.034-.034.069-.069.034-.138h-.034c-.035 0-.035.07-.07.104-.068 0-.137 0-.172-.035a.712.712 0 0 0-.138-.207c-.034-.069 0-.172 0-.206.07-.138.173-.173.31-.276.07-.035.139-.104.207-.104.207 0 .414.035.586.07.104 0 .173.068.242.137.138.07.31.138.413.242a.527.527 0 0 1 .138.344v.552c0 .103.104.207.07.344-.139-.069-.173.07-.208.173zm3.688.276c0 .068.138.31.173.379-.07 0-.207-.07-.241-.138-.138-.138-.104-.276-.104-.586 0-.035 0-.241.07-.276.034.172.068.483.102.62zm2.31-3.55c-.172.034-.31.172-.414.31-.138.172-.138.413-.344.551-.242.172-.586.172-.862.345-.104.069-.207.172-.345.24.138-.24.414-.378.655-.516.38-.207.586-.586.965-.862.173-.138.414-.172.62-.138-.068.035-.172 0-.275.07zm1.379.93c-.035.172-.104.345-.138.517v.345c-.207-.104-.31-.38-.207-.586.069-.173.172-.345.241-.552.035-.138.035-.31.07-.482.103.206.103.482.034.758zm.413.62c.242 0 .414-.138.586-.24 0 .068-.034.102-.069.137-.138.172-.344.345-.551.38-.104 0-.241 0-.31-.139-.035-.138 0-.241 0-.379.103.103.206.207.344.241zm.345-2.447c0 .103 0 .276-.069.345 0-.104 0-.207.069-.345zm-.655.448c.241.07.483.07.724 0 .207-.034.414-.138.62-.276a.749.749 0 0 0 .173-.103c-.07.103-.173.138-.276.207a2.488 2.488 0 0 1-.69.31c-.172.034-.344.034-.551.034-.069 0-.138-.068-.207-.137-.103-.104-.31-.138-.379-.31.207.068.38.206.586.275zm-2.447-.103c.172-.138.344-.276.586-.276a.904.904 0 0 1-.31.172c-.138.07-.242.242-.38.345.035-.103.035-.172.104-.241zm-.965.758a1.15 1.15 0 0 0 .517-.414c.103-.137.138-.31.206-.448.035.138 0 .242 0 .38-.068.172-.137.413-.31.517-.172.137-.379.206-.586.137-.069 0-.138-.069-.207-.137a.5.5 0 0 0 .38-.035zm-.31-1.861c-.31.241-.552.586-.587 1 0 .24 0 .516.07.792.103.241.275.448.516.517.173.035.345.035.517 0 .276-.069.449-.276.62-.482.173-.173.311-.38.449-.552.103-.069.172-.172.31-.241.207-.104.448-.104.69-.035.24.07.448.207.586.414.068.138.068.31.068.448-.068-.069-.068-.207-.172-.31a.931.931 0 0 0-.586-.345c-.241-.034-.448 0-.69.104-.206.103-.413.24-.55.448-.173.206-.414.379-.621.517-.172.138-.38.275-.517.482a.074.074 0 0 1-.07.07c-.068-.311-.275-.587-.413-.863-.207-.31-.344-.654-.344-1.034 0-.551.413-1.068.93-1.206-.103.207-.138.241-.207.276zm1.068-.552c-.31.07-.655.173-.965.242-.31.103-.586.275-.793.517-.138.172-.207.413-.241.62-.035.345 0 .69.138 1 .172.448.448.792.62 1.24.035.138 0 .242 0 .345 0 .035-.034.207-.034.241 0-.069-.07-.24-.104-.344-.034-.173-.138-.31-.172-.448-.138-.345-.345-.62-.517-.965a2.288 2.288 0 0 1-.207-.69c-.034-.379.069-.793.241-1.137.242-.414.69-.724 1.207-.793.241-.035.482 0 .758 0h.586c-.207.138-.38.138-.517.172zm.69.793c-.139-.069-.207-.172-.276-.31a1.047 1.047 0 0 1-.173-.241h.138a.721.721 0 0 1 .138.206c.069.104.138.207.172.345zm-.38-1.034a8.451 8.451 0 0 0-.93-.069c-.242 0-.518.069-.759.138-.448.172-.862.517-1.034.965-.172.414-.172.896-.103 1.344.069.31.241.586.413.862a2.449 2.449 0 0 1-.413-.448c-.173-.276-.242-.586-.31-.896-.035-.448.068-.965.413-1.345.104-.172.31-.24.448-.344.138-.07.242-.138.38-.173.31-.137.62-.137.93-.24.207-.07.414-.07.655-.035.138 0 .241.069.38.103.103.035.24.069.344.104.138.034.241.068.344.137-.24 0-.517-.069-.758-.103zm.345-.345a.261.261 0 0 1-.138-.069c.241-.034.483 0 .724.104.172.069.345.069.517.138-.414.034-.758-.07-1.103-.173zm1.861.035c-.31.103-.62 0-.93-.07-.173-.068-.345-.068-.518-.172.138-.034.242 0 .38 0 .31 0 .586.138.861.173.207 0 .414-.07.586-.104a1.274 1.274 0 0 1-.379.173zm2-.793c-.139 0-.31 0-.449.034-.172.07-.275.173-.413.31-.173.173-.414.38-.69.449.07-.138.207-.173.31-.31.207-.207.414-.414.69-.517.172-.035.379 0 .551.034 0-.034 0 0 0 0zm8.237 2.447v-.861c0-.38-.069-.759-.24-1.103-.035-.07-.311-.552-.828-1.414s-.862-1.413-1.034-1.689c-.276-.379-.517-.655-.724-.792a.835.835 0 0 0-.448-.138c-.104 0-.173-.035-.173-.104s.07-.103.207-.103h2.482c.103 0 .172.034.172.103 0 .035-.069.07-.24.104-.104.034-.139.069-.139.207 0 .068.035.172.138.379.035.069.62 1.137 1.827 3.17.483-.86 1-1.826 1.585-2.929.104-.207.138-.414.138-.552s-.069-.24-.206-.275c-.173.034-.242-.035-.242-.07 0-.068.07-.103.173-.103h2.137c.138 0 .206.035.206.07 0 .068-.068.103-.206.103a.835.835 0 0 0-.448.138c-.173.103-.345.275-.586.517-.173.206-.517.758-1.069 1.689-.551.896-.862 1.482-.965 1.723-.103.241-.172.62-.172 1.069v.861c0 .62.034 1.034.069 1.207.034.275.172.413.413.448.207.034.38.034.552.034.103 0 .172.035.172.07 0 .068-.069.103-.207.103h-2.964c-.172 0-.241-.035-.241-.104 0-.034.069-.069.24-.103.104 0 .208-.035.311-.035.207-.034.31-.241.345-.586-.035-.241-.035-.62-.035-1.034zm12.409 0v1.172c0 .207-.034.345-.138.38-.62.31-1.448.482-2.55.482-1.414 0-2.551-.345-3.447-1-1-.724-1.483-1.792-1.483-3.17 0-.794.173-1.517.552-2.172.31-.552.758-1 1.275-1.31.759-.448 1.724-.69 2.861-.69.69 0 1.31.07 1.896.173.345.069.62.103.827.103.104 0 .138.035.138.138 0-.069 0 .07-.034.414-.035.344-.035.793-.035 1.344 0 .138-.034.207-.103.207s-.104-.035-.104-.138c-.034-.38-.172-.69-.379-.896s-.482-.38-.862-.552c-.482-.207-.965-.275-1.516-.275-.896 0-1.586.206-2.103.654-.655.552-.965 1.414-.965 2.62 0 1.172.345 2.137 1.034 2.86.69.76 1.586 1.138 2.689 1.138.586 0 .93-.069 1.034-.206a.65.65 0 0 0 .069-.276v-2.24c0-.345-.173-.552-.448-.621-.104-.035-.242-.035-.414-.035-.103 0-.172-.034-.172-.068 0-.07.069-.104.207-.104h2.791c.138 0 .207.035.207.104 0 .068-.034.068-.138.068-.103 0-.172 0-.31.035-.276.034-.379.241-.413.62.034.207.034.62.034 1.241zm9.444 0v1.172c0 .207-.034.345-.137.38-.62.31-1.448.482-2.551.482-1.413 0-2.55-.345-3.447-1-1-.724-1.482-1.792-1.482-3.17 0-.794.172-1.517.551-2.172.31-.552.759-1 1.276-1.31.758-.448 1.723-.69 2.86-.69.69 0 1.31.07 1.896.173.345.069.62.103.828.103.103 0 .138.035.138.138 0-.069 0 .07-.035.414s-.034.793-.034 1.344c0 .138-.035.207-.104.207s-.103-.035-.103-.138c-.035-.38-.173-.69-.38-.896s-.482-.38-.861-.552c-.483-.207-.965-.275-1.517-.275-.896 0-1.585.206-2.102.654-.655.552-.965 1.414-.965 2.62 0 1.172.344 2.137 1.034 2.86.689.76 1.585 1.138 2.688 1.138.586 0 .93-.069 1.034-.206a.65.65 0 0 0 .07-.276v-2.24c0-.345-.173-.552-.449-.621-.103-.035-.241-.035-.414-.035-.103 0-.172-.034-.172-.068 0-.07.069-.104.207-.104h2.791c.139 0 .208.035.208.104 0 .068-.035.068-.138.068s-.173 0-.31.035c-.276.034-.38.241-.414.62.034.207.034.62.034 1.241zm2.999-1.171v-1.862c0-1.275 0-2.034-.034-2.275-.035-.345-.173-.551-.448-.62-.104-.035-.242-.035-.414-.035-.138 0-.172-.034-.172-.103s.069-.104.241-.104h3.136c.966 0 1.69.035 2.207.138.861.173 1.55.517 2.068 1.069.69.724 1.034 1.62 1.034 2.723 0 1.206-.38 2.171-1.172 2.964-.827.827-2 1.241-3.585 1.241-.276 0-.69-.035-1.24-.069-.552-.034-.897-.069-1.035-.069h-1.31c-.137 0-.206-.034-.206-.103 0-.035.068-.07.24-.104.104 0 .208-.034.311-.034.172-.035.276-.241.31-.586.035-.207.07-.965.07-2.172zm1.31-2.069v1.344c0 1.138 0 1.827.035 2.138.034.448.068.723.103.827.207.276.655.413 1.413.413 1.034 0 1.861-.24 2.447-.758.586-.517.897-1.413.897-2.654 0-1.137-.345-2-1.034-2.654-.759-.724-1.758-1.069-3.034-1.069-.344 0-.586.035-.69.07-.102.034-.137.103-.137.206v2.137zm8.652 2.069v-1.862c0-1.275 0-2.034-.035-2.275-.034-.345-.172-.551-.448-.62-.103-.035-.241-.035-.414-.035-.137 0-.172-.034-.172-.103s.07-.104.241-.104h2.93c.862 0 1.517.138 1.965.448.172.138.345.31.483.552.172.276.24.586.24.93 0 .828-.482 1.62-1.412 2.379.758.965 1.206 1.517 1.275 1.586.414.517.758.93 1.034 1.206.38.414.793.655 1.206.724.07 0 .173 0 .242.034.138 0 .172.035.172.104 0 .069-.069.103-.207.103h-1c-.516 0-.896-.069-1.137-.207-.345-.172-.827-.724-1.448-1.55a47.36 47.36 0 0 0-1.068-1.483.294.294 0 0 0-.207-.069h-.93c-.07 0-.07.035-.07.069v.138c0 1.206.035 1.965.07 2.275.034.344.172.551.413.586.207.034.38.034.517.034.069 0 .138.035.138.07 0 .068-.069.103-.207.103h-2.861c-.138 0-.207-.035-.207-.104 0-.034.07-.069.242-.103.103 0 .207-.035.31-.035.172-.034.276-.241.31-.586.035-.241.035-1 .035-2.206zm1.275-4.275v3.24c0 .104.034.173.103.207.207.069.483.103.793.103.31 0 .586-.068.758-.172.414-.31.62-.827.62-1.585 0-.69-.206-1.207-.585-1.552a1.541 1.541 0 0 0-1.069-.413c-.344 0-.551.034-.62.069v.103z"/><path d="M76.435 30.435h-2.378c-.035 0-.069.035-.103.069l-.586 1.517c-.104.275-.173.517-.173.655 0 .206.138.344.414.344h.172c.104 0 .173.035.173.07 0 .068-.07.103-.173.103h-1.137c-.62.034-1.034.034-1.241.034-.138 0-.207-.034-.207-.103 0-.07.034-.07.138-.07.103 0 .207 0 .345-.034a.813.813 0 0 0 .551-.31c.103-.138.241-.345.345-.655l2.688-6.687c.104-.276.207-.413.31-.413.07 0 .173.103.276.344.655 1.655 1.551 3.826 2.654 6.55.31.689.62 1.102.931 1.171.138.035.276.035.448.035.104 0 .138.034.138.069 0 .034-.034.069-.103.069s-.207.034-.38.034c-.896 0-1.55 0-1.999-.034-.207 0-.31-.035-.31-.07 0-.068.035-.103.138-.103.103-.034.138-.103.103-.241l-.861-2.275c-.07-.034-.104-.069-.173-.069zm-2.171-.517h1.964a.074.074 0 0 0 .07-.069l-.966-2.62c0-.068-.034-.103-.069-.103-.034 0-.034.035-.069.103l-.965 2.62c0 .035 0 .069.035.069zm7.79 3.482c-.62 0-1.138-.104-1.551-.276-.138-.07-.207-.173-.207-.38 0-.379.034-.861.069-1.413 0-.172.069-.275.138-.275.068 0 .103.068.103.172 0 .138.034.345.103.551.207.724.724 1.069 1.517 1.069.448 0 .793-.138 1.069-.38a1.12 1.12 0 0 0 .344-.827c0-.585-.344-1.171-1.034-1.688l-.482-.38c-1.069-.827-1.586-1.654-1.586-2.516 0-.586.241-1.068.69-1.448.447-.379 1.033-.551 1.792-.551.448 0 .93.069 1.413.172.103.035.138.07.138.138 0 0 0 .104-.035.38 0 .275-.034.55-.034.896 0 .206-.035.31-.103.31-.07 0-.104-.07-.104-.207 0-.241-.103-.483-.276-.69-.275-.344-.655-.516-1.172-.516-.379 0-.689.103-.93.31-.242.207-.345.482-.345.793 0 .24.069.482.241.723.173.207.448.483.897.828l.31.172c.655.483 1.103.93 1.344 1.344.276.414.38.862.38 1.379 0 .793-.345 1.413-1 1.861-.448.276-1 .448-1.69.448zm5.239-3.24v-1.862c0-1.275 0-2.034-.035-2.275-.034-.345-.137-.551-.379-.586-.138-.034-.241-.034-.379-.034s-.172-.035-.172-.104.069-.069.241-.069h2.655c.138 0 .206.035.206.07 0 .068-.035.103-.138.103-.103 0-.207 0-.345.034-.24.035-.379.241-.379.62 0 .242-.034 1-.034 2.275v1.862c0 1.275 0 2.033.034 2.344.035.31.173.482.414.517.207.034.379.034.551.034.104 0 .173.035.173.07 0 .068-.07.102-.207.102H86.5c-.138 0-.207-.034-.207-.103 0-.034.07-.069.242-.103.103 0 .206-.035.31-.035.172-.034.276-.207.31-.517.103-.345.138-1.137.138-2.344zm6.135-1.896v1.86c0 .794 0 1.345.035 1.586.034.38.103.62.207.69.172.172.62.241 1.275.241.655 0 1.068-.103 1.24-.31.173-.173.242-.38.277-.655 0-.103.068-.172.103-.172.069 0 .069.069.069.172 0 .414-.07.827-.172 1.24a.394.394 0 0 1-.242.277c-.034 0-.172.034-.413.034-.552 0-1.172 0-1.793-.034-.62-.035-1.068-.035-1.31-.035h-1.309c-.138 0-.207-.034-.207-.103 0-.035.069-.07.241-.104.104 0 .207-.034.31-.034.173-.035.276-.241.31-.586.035-.276.07-1.034.07-2.275v-1.861c0-1.276 0-2.034-.035-2.275 0-.276-.103-.448-.241-.517-.104-.07-.31-.104-.586-.104-.138 0-.173-.034-.173-.103s.07-.104.242-.104h2.93c.172 0 .206.035.206.104s-.069.103-.206.103c-.173 0-.31 0-.414.035-.241.034-.38.241-.38.62-.034.276-.034 1.034-.034 2.31zM29.351 39.983c-.276 0-.482-.035-.655-.104-.069-.034-.069-.068-.069-.137 0-.173 0-.345.035-.586 0-.07.034-.104.069-.104.034 0 .034.035.034.07 0 .068 0 .137.035.24.103.31.31.449.655.449.172 0 .344-.07.448-.173s.138-.207.138-.344c0-.242-.138-.483-.449-.724l-.206-.173c-.448-.344-.655-.69-.655-1.068 0-.241.103-.448.275-.62.207-.173.449-.242.759-.242.207 0 .379.035.586.069.034 0 .069.034.069.069v.552c0 .103 0 .137-.035.137s-.034-.034-.034-.069a.556.556 0 0 0-.104-.31c-.103-.138-.275-.207-.482-.207-.173 0-.31.035-.38.138-.103.07-.137.207-.137.345 0 .103.034.207.103.31.07.104.207.207.38.345l.137.103c.276.207.448.38.586.552.104.172.172.379.172.586 0 .344-.137.586-.413.792-.345.035-.586.104-.862.104zM32.66 38.5v-1.619c0-.138-.069-.242-.207-.242h-.172c-.035 0-.069 0-.069-.034 0-.035.034-.035.103-.035h1.207c.069 0 .103 0 .103.035 0 .034-.034.034-.069.034h-.138c-.103.035-.172.104-.172.242v1.585c0 .552.103.896.345 1.103.138.138.344.173.551.173a.83.83 0 0 0 .62-.242c.104-.103.173-.275.242-.482.034-.138.034-.345.034-.62v-1.517c0-.138-.068-.242-.206-.242h-.173c-.034 0-.069 0-.069-.034 0-.035.035-.035.104-.035h1.034c.069 0 .103 0 .103.035 0 .034-.034.034-.069.034h-.138c-.103.035-.172.104-.172.242v1.447c0 .31-.034.552-.069.724a1.218 1.218 0 0 1-.345.62c-.24.207-.551.31-.93.31-.448 0-.758-.103-1-.31-.31-.24-.448-.62-.448-1.171zm5.343.139v-1.758c0-.138-.07-.242-.207-.242h-.172c-.035 0-.07 0-.07-.034 0-.035.035-.035.104-.035h1.31c.379 0 .655.07.827.242.138.138.241.31.241.517 0 .31-.103.586-.31.793-.207.206-.482.31-.793.31h-.103c-.034 0-.069-.035-.069-.035 0-.034.035-.034.138-.034a.476.476 0 0 0 .38-.207.783.783 0 0 0 .206-.551.962.962 0 0 0-.276-.69c-.138-.103-.276-.172-.448-.172h-.172c-.035 0-.035.034-.035.103v1.793c0 .517 0 .827.035.965.034.138.069.241.172.241.103 0 .172.034.241.034.035 0 .07 0 .07.035 0 .034-.035.034-.07.034h-1.24c-.07 0-.104 0-.104-.034 0-.035.035-.035.103-.035h.138c.07 0 .104-.103.138-.24-.034-.173-.034-.483-.034-1zm4.239 0v-1.758c0-.138-.069-.242-.206-.242h-.173c-.034 0-.069 0-.069-.034 0-.035.035-.035.104-.035h1.792c.069 0 .138 0 .207-.034.034 0 .069-.034.069-.034.034 0 .034 0 .034.034v.069c0 .069 0 .138-.034.207 0 .069 0 .172-.035.31 0 .034-.034.034-.034.034-.035 0-.035 0-.035-.034v-.103c0-.035 0-.07-.034-.07-.035-.103-.138-.137-.31-.172-.104 0-.31-.034-.655-.034-.035 0-.035 0-.035.034v1.138c0 .034 0 .034.035.034h.827c.035 0 .069-.034.103-.069l.07-.069c.034 0 .034 0 .034.035v.103c0 .07 0 .138-.035.242 0 .172-.034.275-.034.31 0 .069 0 .069-.035.069-.034 0-.034 0-.034-.035 0-.034 0-.069-.034-.138-.035-.103-.104-.172-.242-.172h-.655c-.034 0-.034 0-.034.034v1.035c0 .172.034.275.103.31.07.034.207.069.448.069.207 0 .345-.035.414-.07.103-.034.172-.172.207-.344 0-.034.034-.069.034-.069.035 0 .035.035.035.069 0 .172-.035.345-.07.483 0 .069-.034.103-.068.103-.035 0-.104.034-.172.034h-1.793c-.069 0-.103 0-.103-.034s.034-.034.103-.034h.138c.069 0 .103-.104.138-.242.034-.103.034-.413.034-.93zm4.171 0v-1.758c0-.138-.069-.242-.207-.242h-.172c-.035 0-.069 0-.069-.034 0-.035.034-.035.103-.035h1.241c.345 0 .62.07.828.207.068.035.137.138.206.242s.104.24.104.379c0 .344-.207.69-.586 1 .31.413.517.62.551.689.173.207.31.379.448.517.173.172.345.275.517.31h.104c.034 0 .069.034.069.034 0 .035-.035.035-.07.035h-.413c-.207 0-.379-.035-.482-.07-.138-.068-.345-.31-.62-.654-.139-.172-.277-.38-.449-.62-.034-.035-.034-.035-.069-.035h-.379c-.034 0-.034 0-.034.035v.069c0 .517 0 .827.034.965s.069.24.172.24c.104 0 .173.035.207.035.035 0 .07 0 .07.035 0 .034-.035.034-.104.034h-1.206c-.07 0-.104 0-.104-.034 0-.035.034-.035.103-.035h.138c.07 0 .104-.103.138-.24-.069-.242-.069-.552-.069-1.07zm.517-1.827v1.379c0 .034 0 .068.035.068.069.035.206.035.344.035s.242-.035.31-.069c.173-.138.276-.345.276-.69 0-.275-.069-.516-.241-.654-.138-.104-.276-.173-.448-.173-.138 0-.241 0-.241.035 0 .034-.035.069-.035.069zm4.205 1.827v-1.758c0-.138-.069-.242-.138-.242-.034 0-.103-.034-.137-.034-.07 0-.07 0-.07-.035 0-.034.035-.034.104-.034h1.137c.068 0 .104 0 .104.034 0 .035-.035.035-.069.035h-.138c-.103.034-.138.103-.172.241v1.758c0 .552 0 .862.034.965 0 .138.07.207.173.207.068 0 .172.035.24.035.035 0 .07 0 .07.034s-.035.034-.07.034h-1.24c-.069 0-.103 0-.103-.034s.034-.034.103-.034h.138c.069 0 .103-.104.138-.207-.138-.138-.104-.448-.104-.965zm4.654 1.344c-.586 0-1.069-.207-1.38-.586-.275-.31-.413-.724-.413-1.172 0-.448.138-.827.414-1.172.345-.38.827-.586 1.413-.586.552 0 1 .138 1.31.448s.482.724.482 1.241c0 .517-.172.965-.517 1.31-.31.345-.758.517-1.31.517zm.172-.207a.83.83 0 0 0 .62-.241c.276-.242.414-.655.414-1.207 0-.482-.138-.896-.38-1.206-.24-.276-.55-.448-.93-.448-.31 0-.551.103-.758.276-.241.24-.345.62-.345 1.137 0 .483.138.862.38 1.172.24.345.585.517.999.517zm3.999-1.137v-1.758c0-.138-.07-.242-.208-.242h-.172c-.034 0-.069 0-.069-.034 0-.035.035-.035.104-.035h1.24c.345 0 .62.07.828.207.069.035.138.138.207.242a.695.695 0 0 1 .103.379c0 .344-.207.69-.586 1 .31.413.517.62.551.689.173.207.31.379.449.517.172.172.344.275.517.31h.103c.034 0 .069.034.069.034 0 .035-.035.035-.069.035h-.414c-.206 0-.379-.035-.482-.07-.138-.068-.345-.31-.62-.654-.139-.172-.276-.38-.449-.62-.034-.035-.034-.035-.069-.035h-.379c-.034 0-.034 0-.034.035v.069c0 .517 0 .827.034.965s.07.24.173.24c.103 0 .172.035.206.035.035 0 .07 0 .07.035 0 .034-.035.034-.104.034h-1.206c-.07 0-.104 0-.104-.034 0-.035.035-.035.103-.035h.138c.07 0 .104-.103.138-.24-.103-.242-.069-.552-.069-1.07zm.516-1.827v1.379c0 .034 0 .068.035.068.069.035.207.035.344.035a.688.688 0 0 0 .31-.069c.173-.138.276-.345.276-.69 0-.275-.069-.516-.24-.654-.139-.104-.277-.173-.449-.173-.138 0-.241 0-.241.035-.035.034-.035.069-.035.069zm11.409 2.309v.483c0 .103-.034.138-.069.172-.24.138-.62.207-1.068.207-.586 0-1.069-.138-1.448-.414-.413-.31-.62-.758-.62-1.344 0-.345.069-.655.241-.896.138-.241.31-.414.552-.552.31-.207.723-.275 1.206-.275.276 0 .552.034.793.068.138.035.276.035.344.035.035 0 .07.034.07.069v.724c0 .069 0 .103-.035.103s-.035-.034-.035-.069a.971.971 0 0 0-.137-.379c-.07-.103-.207-.172-.345-.241-.207-.07-.414-.138-.655-.138-.38 0-.655.103-.896.276-.276.24-.414.586-.414 1.103 0 .482.138.896.414 1.206.276.31.655.483 1.137.483.242 0 .38-.035.448-.104.035-.034.035-.069.035-.138v-.93c0-.138-.07-.242-.207-.242h-.172c-.035 0-.07 0-.07-.034s.035-.035.104-.035h1.172c.069 0 .104 0 .104.035s-.035.034-.07.034h-.137c-.104.035-.173.104-.173.242-.069.103-.069.31-.069.551zm3.757-.379h-1c-.034 0-.034 0-.034.034l-.24.655a1.065 1.065 0 0 0-.07.276c0 .104.07.138.173.138h.068c.035 0 .07 0 .07.034s-.035.035-.07.035h-.999c-.07 0-.069 0-.069-.035s.034-.034.069-.034h.138c.103 0 .172-.069.241-.138.035-.069.103-.138.138-.276l1.137-2.826c.035-.103.104-.172.138-.172.035 0 .07.034.104.137.275.69.655 1.62 1.103 2.758.138.31.241.448.379.483.069 0 .103.034.172.034.035 0 .07 0 .07.034s0 .035-.035.035H76.09c-.104 0-.138 0-.138-.035s.034-.034.069-.034.069-.034.034-.103l-.345-.966c-.034 0-.069-.034-.069-.034zm-.93-.207h.827c.035 0 .035 0 .035-.034l-.414-1.103c0-.035 0-.035-.035-.035 0 0-.034 0-.034.035l-.38 1.137zm3.895.931l.448-2.93c0-.069.034-.103.069-.103.034 0 .069.034.138.137l1.24 2.517 1.207-2.551c.034-.069.069-.103.103-.103s.07.034.07.137l.413 2.758c.034.138.034.241.069.31a.27.27 0 0 0 .138.138.857.857 0 0 0 .275.035c.035 0 .07 0 .07.034s-.035.034-.104.034c-.38 0-.69 0-.896-.034-.104 0-.138-.034-.138-.034 0-.035 0-.035.034-.035s.035-.069.035-.207l-.276-1.964h-.034l-.965 2.033c-.07.173-.138.241-.173.241s-.069-.068-.172-.24l-.517-1.035c-.104-.207-.241-.551-.483-1h-.034l-.241 1.793v.207c0 .069.034.138.137.138.07 0 .138.034.173.034s.069 0 .069.035-.035.034-.104.034h-.93c-.07 0-.07 0-.07-.034s.035-.035.07-.035h.137c.138.035.207-.069.242-.31zm6.239-.827v-1.758c0-.138-.07-.242-.138-.242-.035 0-.104-.034-.138-.034-.07 0-.07 0-.07-.035 0-.034.035-.034.104-.034h1.138c.07 0 .103 0 .103.034 0 .035-.034.035-.069.035h-.138c-.103.034-.137.103-.172.241v1.758c0 .552 0 .862.035.965 0 .138.068.207.172.207.069 0 .172.035.241.035.035 0 .07 0 .07.034s-.035.034-.07.034h-1.241c-.069 0-.103 0-.103-.034s.034-.034.103-.034h.138c.07 0 .104-.104.138-.207-.103-.138-.103-.448-.103-.965zm3.55-1.207l.034 1.896c0 .31.07.448.173.483 0 0 .069 0 .172.034.103 0 .138.034.138.034 0 .035-.035.035-.103.035h-1.034c-.07 0-.104 0-.104-.035s.035-.034.103-.034c.07 0 .104 0 .173-.034.069-.035.103-.07.103-.138 0-.07.035-.207.035-.414l.034-2.654c0-.103.035-.138.07-.138.034 0 .068.035.171.138.242.276.724.758 1.38 1.448.31.31.62.655.999 1.034h.034l-.034-2c0-.103 0-.172-.035-.24-.034-.104-.069-.139-.138-.173-.034-.035-.137-.035-.24-.035-.035 0-.07 0-.07-.034 0-.035.035-.035.104-.035h.965c.069 0 .103 0 .103.035 0 .034-.034.034-.069.034-.138 0-.241.035-.276.138 0 .07-.034.138-.034.242l-.035 2.826c0 .103-.034.138-.068.138-.035 0-.07-.035-.138-.104l-1.31-1.31a14.43 14.43 0 0 1-.69-.723l-.413-.414zm8.066 1.689v.483c0 .103-.035.138-.07.172-.24.138-.62.207-1.068.207-.586 0-1.068-.138-1.448-.414-.413-.31-.62-.758-.62-1.344 0-.345.069-.655.241-.896.138-.241.31-.414.552-.552.31-.207.724-.275 1.206-.275.276 0 .552.034.793.068.138.035.276.035.345.035.034 0 .069.034.069.069v.724c0 .069 0 .103-.035.103s-.034-.034-.034-.069a.971.971 0 0 0-.138-.379c-.07-.103-.207-.172-.345-.241-.207-.07-.414-.138-.655-.138-.379 0-.655.103-.896.276-.276.24-.414.586-.414 1.103 0 .482.138.896.414 1.206.276.31.655.483 1.137.483.242 0 .38-.035.448-.104.035-.034.035-.069.035-.138v-.93c0-.138-.069-.242-.207-.242H95.6c-.035 0-.07 0-.07-.034s.035-.035.104-.035h1.172c.07 0 .104 0 .104.035s-.035.034-.07.034h-.137c-.104.035-.173.104-.173.242-.068.103-.068.31-.068.551z"/></g></svg>