<svg xmlns="http://www.w3.org/2000/svg" viewBox="0 0 104.1357117 48.9221458"><path fill="none" d="M0 0h104.136v48.922H0z"/><g fill="#3E3E3E"><path d="M80.004 13.638c-1.065-.557-2.262-.513-2.669.098l-3.602 5.388c.634-.248 1.554-.159 2.41.288.859.45 1.39 1.115 1.448 1.728l3.602-5.388c.412-.608-.122-1.556-1.19-2.114z"/><path d="M81.053 12.071c-1.065-.557-2.262-.513-2.669.098l-.66.99c.634-.248 1.553-.158 2.412.289.859.45 1.39 1.118 1.448 1.728l.66-.988c.41-.613-.123-1.56-1.191-2.117zM61.572 40.494v.005-.005l-8.276-2.505.94 2.54 15.882 8.3-.943-2.543zm7.912 5.885l.946 2.518 1.411-2.106c-.7-1.263-2.357-.412-2.357-.412zm-13.543-8.094c-.684-1.242-2.29-.444-2.349-.415l2.19.65.16-.235zm21.217-16.489l.047-.072c.41-.61-.124-1.559-1.189-2.114-1.065-.557-2.259-.515-2.669.098l-1.09 1.636a.82.82 0 0 0-.138.454h5.039v-.002zM21.774 40.5c-.085.472.09.684.56.684.473 0 .721-.212.803-.685l.23-1.305h-.56l-.058.33h.203l-.172.975c-.04.22-.187.354-.39.354-.202 0-.302-.134-.265-.354l.402-2.283c.045-.262.23-.354.386-.354.206.003.306.137.266.354l-.07.402h.356l.071-.402c.082-.473-.09-.682-.563-.682-.47 0-.718.212-.8.682l-.4 2.283zm5.567.623h.36l.053-1.208.045-2.323h-.584l-.78 2.331-.37 1.2h.357l.246-.793h.71l-.037.793zm-.573-1.12l.727-2.355-.106 2.354h-.621zm5.203 1.12l.624-3.53h-.378l-1.195 2.843-.203-2.844h-.378l-.62 3.53h.337l.447-2.536.187 2.537h.225l1.076-2.56-.452 2.56zm3.647-3.531l-.624 3.53h.354l.624-3.53zm4.513 3.531l.621-3.528-.317.005-.452 2.572-.217-2.58h-.377l-.621 3.53h.333l.443-2.512.21 2.513zm3.021-.623c-.085.472.09.684.56.684.473 0 .718-.212.803-.685l.23-1.305h-.558l-.058.33h.204l-.172.975c-.04.22-.188.354-.391.354-.201 0-.301-.134-.264-.354l.401-2.283c.048-.262.23-.354.386-.354.206.003.307.137.267.354l-.071.402h.359l.071-.402c.082-.473-.09-.682-.563-.682-.47 0-.718.212-.8.682l-.404 2.283zM27.7 35.621l-1.067-5.243-.05.035-.1.927a14.5 14.5 0 0 1-.133.928l-.517 3.356h-3.407l1.953-12.59h3.29c.655 0 1.263.051 1.82.152.558.1 1.037.27 1.436.51.401.237.71.565.935.975.222.412.336.935.336 1.57 0 .155-.008.314-.027.475-.016.161-.037.33-.058.51a4.532 4.532 0 0 1-.758 1.903c-.397.568-.954.985-1.678 1.252l1.717 5.24h-3.691zm-.6-6.762a1.477 1.477 0 0 0 1.11-.492c.14-.15.254-.322.344-.517a2.32 2.32 0 0 0 .214-.944c0-.401-.113-.695-.343-.885-.227-.19-.537-.283-.928-.283h-.132l-.483 3.105.219.016zm11.134-5.827h2.737c.846 0 1.586.111 2.22.333.634.222 1.165.542 1.594.96.428.417.75.924.97 1.519.216.594.324 1.266.324 2.01 0 .223-.008.453-.023.685a7.063 7.063 0 0 1-.093.735c-.145.967-.365 1.797-.66 2.486-.296.69-.635 1.269-1.018 1.737s-.798.843-1.244 1.128a5.919 5.919 0 0 1-1.338.642 6.17 6.17 0 0 1-1.302.283 10.95 10.95 0 0 1-1.152.066H36.28l1.953-12.584zm1.92 9.55c.39 0 .722-.108.994-.325s.497-.483.677-.8a4.6 4.6 0 0 0 .417-1.018c.1-.362.172-.692.217-.993.066-.378.1-.79.1-1.237 0-.267-.018-.523-.058-.769a1.979 1.979 0 0 0-.216-.653 1.219 1.219 0 0 0-.434-.449c-.182-.11-.414-.166-.692-.166l-1.004 6.41zm10.899 3.039l-1.068-5.243-.05.035c-.035.312-.066.62-.1.927-.035.307-.077.616-.133.928l-.518 3.356h-3.406l1.953-12.59h3.29c.655 0 1.263.051 1.82.152.558.1 1.036.27 1.435.51.402.237.711.565.936.975.222.412.336.935.336 1.57 0 .155-.008.314-.027.475-.016.161-.037.33-.058.51a4.532 4.532 0 0 1-.758 1.903c-.397.568-.954.985-1.678 1.252l1.72 5.243-3.694-.003zm-.6-6.762c.222 0 .428-.045.618-.132.19-.09.354-.209.492-.36.14-.15.253-.322.343-.517a2.32 2.32 0 0 0 .182-.592c.011-.066.019-.127.027-.185.005-.056.008-.111.008-.167 0-.401-.114-.695-.344-.885-.227-.19-.536-.283-.927-.283h-.132l-.484 3.105.217.016zm22.778-5.827l-3.657 6.078 2.019 6.511h-3.657l-1.219-5.776h-.015l-.899 5.776h-3.406l1.953-12.589h3.406l-.835 5.36h.016l2.706-5.36h3.588zm.732 0h6.329l-.452 2.973h-2.923l-.282 1.752h2.621l-.468 2.973h-2.621l-.301 1.921h2.922l-.449 2.973H72.01l1.953-12.592z"/><path d="M37.253 26.005l.45-2.973h-6.327l-.042.27c.426.283.767.65 1.012 1.102.267.491.402 1.11.402 1.834 0 .174-.01.351-.03.533-.015.167-.036.339-.06.521-.127.8-.415 1.52-.856 2.154-.365.523-.851.94-1.448 1.242l1.622 4.933h3.774l.452-2.973h-2.923l.301-1.92h2.622l.467-2.974h-2.62l.284-1.752 2.92.003zm24.951 9.616l-.719-12.589H57.33l-1.232 3.118c0 .03.005.059.005.088 0 .174-.01.351-.029.533-.015.167-.037.339-.06.521-.127.8-.415 1.52-.857 2.154a3.73 3.73 0 0 1-.644.708l-.534 1.355 1.35 4.115h.531l.534-1.62h2.289v1.617h3.522zm-4.942-4.291l.92-2.923c.122-.388.238-.785.352-1.184.11-.401.222-.795.332-1.186h.035c-.024.39-.045.785-.066 1.186-.021.4-.04.796-.05 1.184L58.7 31.33h-1.438zm6.128 5.657l-2.09 3.13.33.102 1.073.82 2.709-4.052z"/></g></svg>