<svg xmlns="http://www.w3.org/2000/svg" viewBox="0 0 104.1357117 49.0645103"><path fill="none" d="M0 .142h104.136v48.922H0z"/><g fill="#3E3E3E"><path d="M82.643 45c-8.762 0-15.89-7.128-15.89-15.89s7.128-15.891 15.89-15.891 15.891 7.128 15.891 15.89c0 8.763-7.128 15.891-15.89 15.891zm0-29.827c-7.682 0-13.945 6.254-13.945 13.946s6.253 13.946 13.945 13.946S96.59 36.812 96.59 29.119c0-7.692-6.263-13.946-13.946-13.946z"/><path d="M78.588 9.708c0 .039-.049.048-.058.01-.438-1.907-4.396-9.871-4.804-9.716-.467.166.389 8.344 1.01 10.756.01.039-.038.049-.057.02-2.762-4.406-5.942-4.318-6.555-4.23-.039.009-.039.058-.01.067 3.812 1.965 5.65 7.576 5.825 8.13.01.02.03.03.059.02a16.651 16.651 0 0 1 7.157-2.334c.02 0 .04-.02.03-.04-.117-.495-1.216-5.65.894-9.228.02-.03-.01-.068-.039-.058-.544.184-3.335 1.847-3.452 6.603z"/><ellipse transform="rotate(-69.354 86.46 20.396)" cx="86.46" cy="20.396" rx="3.414" ry="4.902"/><path d="M6.273 33.32v-8.033H8.44c.769 0 1.479.185 1.868.477.651.496.826 1.352.826 1.848 0 .748-.253 1.206-.506 1.536-.213.272-.758.525-1.128.671.496.72 1.994 3.608 1.994 3.608h-1.77s-1.663-3.365-1.828-3.365h-.263v3.258h-1.36zm2.052-6.632h-.69v1.838h.69c.437 0 .68-.078.924-.243s.37-.39.37-.671a.768.768 0 0 0-.36-.671c-.244-.166-.487-.253-.934-.253zM0 33.32v-8.033h2.169c.768 0 1.478.185 1.867.477.651.496.827 1.352.827 1.848 0 1.196-.778 2.032-1.518 2.227-.816.214-1.983.223-1.983.223v3.258H0zm2.062-6.632h-.69v1.838h.69c.437 0 .68-.078.924-.243s.37-.39.37-.671c0-.282-.118-.506-.36-.671s-.487-.253-.934-.253zm68.998 6.739v-8.033h2.267c.768 0 1.478.185 1.867.477.652.496.827 1.352.827 1.848 0 .748-.253 1.206-.506 1.536-.214.272-.759.525-1.128.671-.486.185-1.76.146-1.76.146l-.01 3.365-1.556-.01zm2.16-6.632h-.593v1.838h.593c.437 0 .68-.078.924-.243.243-.166.37-.39.37-.671s-.117-.506-.36-.671c-.244-.175-.487-.253-.934-.253zm-44.444-.399l-1.06 1.04c-.641-.593-1.643-1.108-2.49-1.108a2.795 2.795 0 0 0-1.954.778c-.253.243-.447.554-.593.934s-.224.797-.224 1.244c0 .895.253 1.615.759 2.16.505.554 1.176.826 2.003.826.642 0 1.196-.204 1.673-.593.272-.224.603-.418.749-1.06l-2.403-.01-.019-1.381h4.153c0 1.498-.273 2.227-1.041 3.102-.759.876-1.8 1.313-3.122 1.313a4.574 4.574 0 0 1-1.76-.33c-.545-.224-1.011-.516-1.4-.905s-.7-.846-.914-1.371a4.476 4.476 0 0 1-.331-1.74c0-.837.194-1.576.574-2.228a4.013 4.013 0 0 1 1.585-1.537 4.631 4.631 0 0 1 2.227-.544c.67 0 1.264.107 1.78.311.515.204 1.449.798 1.808 1.099zm9.832-1.109l1.255 8.033h-1.537l-.729-5.096-1.78 5.096h-1.41l-1.818-5.164-.71 5.164h-1.517l1.274-8.033h1.41l2.08 5.962 2.072-5.962h1.41zm65.148.302l.38 2.431h-.467l-.224-1.546-.535 1.546h-.428l-.544-1.566-.214 1.566h-.457l.38-2.431h.427l.622 1.809.623-1.81h.437zm-59.458-.399h1.39l3.346 8.237h-1.741l-.68-1.673h-3.21l-.68 1.673h-1.674l3.249-8.237zm1.838 5.028l-.555-1.313a26.48 26.48 0 0 1-.603-1.75h-.039a42.739 42.739 0 0 1-.564 1.75l-.544 1.303h2.305v.01zM84.91 25.19h1.4l3.345 8.237h-1.74l-.681-1.673h-3.21l-.68 1.673H81.67l3.238-8.237zm1.837 5.028l-.554-1.313c-.175-.447-.38-1.03-.603-1.75h-.039a42.734 42.734 0 0 1-.564 1.75l-.544 1.303h2.304v.01zM15.823 25.19h1.39l3.346 8.237h-1.741l-.68-1.673h-3.21l-.68 1.673h-1.674l3.249-8.237zm1.828 5.028l-.554-1.313c-.175-.447-.38-1.03-.603-1.75h-.04a42.73 42.73 0 0 1-.563 1.75l-.545 1.303h2.305v.01zm31.189-3.462V25.21h4.803v1.546H52.04v6.652h-1.605v-6.652H48.84zm50.832-.72v-.467h1.449v.467h-.486v2.013h-.487v-2.013h-.476zm-44.93 7.45v-8.189h1.595v8.189h-1.595zm22.183 0v-8.092h1.605v6.594h2.227v1.498h-3.832zm14.014-.069v-3.54l-2.45-4.531h1.477l1.683 3.16h.029l1.682-3.16h1.479l-2.49 4.532v3.54h-1.41zM62.094 32.3a2.489 2.489 0 0 1-1.993-.837c-.516-.555-.769-1.274-.769-2.16 0-.874.253-1.594.769-2.148.515-.555 1.176-.837 1.993-.837 1.81 0 2.539 1.196 2.539 1.196l.992-.875a4.15 4.15 0 0 0-1.274-1.118c-.662-.38-1.42-.564-2.247-.564s-1.585.184-2.256.564c-.671.379-1.196.894-1.576 1.556s-.573 1.41-.573 2.227l-.02.01c0 .816.195 1.565.574 2.236a4.13 4.13 0 0 0 1.575 1.566c.671.38 1.42.564 2.257.564.826 0 1.575-.194 2.246-.574a4.156 4.156 0 0 0 1.294-1.138l-1.002-.992s-.953 1.274-2.529 1.323z"/></g></svg>