<?xml version="1.0" encoding="utf-8"?>
<!-- Generator: Adobe Illustrator 19.1.0, SVG Export Plug-In . SVG Version: 6.00 Build 0)  -->
<svg version="1.1" id="Ebene_2" xmlns="http://www.w3.org/2000/svg" xmlns:xlink="http://www.w3.org/1999/xlink" x="0px" y="0px"
	 viewBox="-1128.7 809 88 55.2" style="enable-background:new -1128.7 809 88 55.2;" xml:space="preserve">
<style type="text/css">
	.st0{fill:#A4C300;}
</style>
<g id="XMLID_28_">
	<circle id="XMLID_34_" class="st0" cx="-1093.5" cy="843.6" r="3.2"/>
	<circle id="XMLID_33_" class="st0" cx="-1075.9" cy="843.6" r="3.2"/>
	<path id="XMLID_32_" class="st0" d="M-1076,853.3c-6.5,1.3-10.5,1.3-17,0c-0.2,0-0.3,0.1-0.4,0.2c-0.1,0.2,0,0.4,0.1,0.5
		c5,5,12.5,5,17.5,0c0.1-0.1,0.2-0.3,0.1-0.5C-1075.7,853.3-1075.8,853.2-1076,853.3z"/>
	<path id="XMLID_29_" class="st0" d="M-1069.4,817.1c1.2-0.3,2.7-0.9,3.5-1.4c1.2-0.9,2.5-3.7,0.3-2c-2,1.6-3.5,0.6-7.4,1.2
		c0,0-0.1,0-0.1-0.1c1.1-0.4,2.1-0.9,2.9-1.5c2.1-1.6,4.4-6.4,0.5-3.3c-3.3,2.6-9.4,1.4-16.6,2.2c-13.6,0.8-24.4,12.2-24.4,26
		c0,14.4,11.7,26,26,26c14.4,0,26-11.7,26-26C-1058.7,829.5-1062.9,821.8-1069.4,817.1z M-1084.7,862c-10.7,0-19.8-7.1-22.8-16.9
		c-0.5-2.2-0.8-5.4-0.5-7.3c2.5-17.5,13.6-7,23.5-6.2c8.7,0.6,20.1-7.1,23.3,4.8c0.6,2.3,0.2,5.3-0.4,7.9
		C-1064.3,854.4-1073.6,862-1084.7,862z"/>
</g>
</svg>
