<?xml version="1.0" encoding="utf-8"?>
<!-- Generator: Adobe Illustrator 19.1.0, SVG Export Plug-In . SVG Version: 6.00 Build 0)  -->
<svg version="1.1" id="Ebene_1_Kopie" xmlns="http://www.w3.org/2000/svg" xmlns:xlink="http://www.w3.org/1999/xlink" x="0px"
	 y="0px" viewBox="-1128.7 809 88 55.2" style="enable-background:new -1128.7 809 88 55.2;" xml:space="preserve">
<style type="text/css">
	.st0{fill:#A4C300;}
</style>
<g>
	<path class="st0" d="M-1076,853.3c-6.5,1.3-10.5,1.3-17,0c-0.2,0-0.3,0.1-0.4,0.2c-0.1,0.2,0,0.4,0.1,0.5c5,5,12.5,5,17.5,0
		c0.1-0.1,0.2-0.3,0.1-0.5C-1075.6,853.4-1075.8,853.3-1076,853.3z"/>
	<g>
		<circle class="st0" cx="-1093.3" cy="843.4" r="3.2"/>
		<circle class="st0" cx="-1075.6" cy="843.4" r="3.2"/>
	</g>
	<path class="st0" d="M-1112.3,830.4c-0.4,1.6-1,5.2-0.7,7c-6.7,1.6-6.3,8.6-3,12.4c4.7,5.5-13.4,0.6-12.7-10.8
		C-1128,827-1113.4,828.7-1112.3,830.4z"/>
	<path class="st0" d="M-1057.1,830.4c0.4,1.6,1,5.2,0.7,7c6.7,1.6,6.3,8.6,3,12.4c-4.7,5.5,13.4,0.6,12.7-10.8
		C-1041.3,827-1055.9,828.7-1057.1,830.4z"/>
	<path class="st0" d="M-1084.7,812.2c-14.4,0-26,11.7-26,26c0,14.4,11.7,26,26,26c14.4,0,26-11.7,26-26
		C-1058.6,823.8-1070.3,812.2-1084.7,812.2z M-1084.7,862c-13.1,0-23.8-10.7-23.8-23.8c0-1.6,0.2-3.1,0.4-4.6
		c2.5-6.3,15.7-2.6,25.4,1.8c12.8,5.8,20.1-5.8,21.8,1.2c0,0.5,0.1,1,0.1,1.6C-1060.8,851.3-1071.5,862-1084.7,862z"/>
</g>
</svg>
