<?xml version="1.0" encoding="utf-8"?>
<!-- Generator: Adobe Illustrator 19.1.0, SVG Export Plug-In . SVG Version: 6.00 Build 0)  -->
<svg version="1.1" id="Ebene_1" xmlns="http://www.w3.org/2000/svg" xmlns:xlink="http://www.w3.org/1999/xlink" x="0px" y="0px"
	 viewBox="0 0 283.5 283.5" enable-background="new 0 0 283.5 283.5" xml:space="preserve">
<path fill="#00386A" d="M-236.3,219.9c-2.3,0-4.7-0.9-6.5-2.7c-3.6-3.6-3.6-9.4,0-12.9l62.6-62.6l-62.4-62.4
	c-3.6-3.6-3.6-9.4,0-12.9c3.6-3.6,9.4-3.6,12.9,0l68.9,68.9c1.7,1.7,2.7,4,2.7,6.5c0,2.4-1,4.8-2.7,6.5l-69,69
	C-231.6,219-233.9,219.9-236.3,219.9z"/>
<path fill="#00386A" d="M63.6,107.2c0-2.3,0.9-4.7,2.7-6.5c3.6-3.6,9.4-3.6,12.9,0l62.6,62.6l62.4-62.4c3.6-3.6,9.4-3.6,12.9,0
	c3.6,3.6,3.6,9.4,0,12.9l-68.9,68.9c-1.7,1.7-4,2.7-6.5,2.7c-2.4,0-4.8-1-6.5-2.7l-69-69C64.5,111.9,63.6,109.5,63.6,107.2z"/>
<path fill="#00386A" d="M521.2,63.6c2.3,0,4.7,0.9,6.5,2.7c3.6,3.6,3.6,9.4,0,12.9l-62.6,62.6l62.4,62.4c3.6,3.6,3.6,9.4,0,12.9
	c-3.6,3.6-9.4,3.6-12.9,0l-68.9-68.9c-1.7-1.7-2.7-4-2.7-6.5c0-2.4,1-4.8,2.7-6.5l69-69C516.6,64.5,518.9,63.6,521.2,63.6z"/>
<path fill="#00386A" d="M917.3,176.3c0,2.3-0.9,4.7-2.7,6.5c-3.6,3.6-9.4,3.6-12.9,0l-62.6-62.6l-62.4,62.4c-3.6,3.6-9.4,3.6-12.9,0
	c-3.6-3.6-3.6-9.4,0-12.9l68.9-68.9c1.7-1.7,4-2.7,6.5-2.7c2.4,0,4.8,1,6.5,2.7l69,69C916.4,171.6,917.3,173.9,917.3,176.3z"/>
</svg>
